<?xml version="1.0" standalone="no"?>
<!DOCTYPE svg PUBLIC "-//W3C//DTD SVG 1.1//EN" "http://www.w3.org/Graphics/SVG/1.1/DTD/svg11.dtd" >
<svg xmlns="http://www.w3.org/2000/svg">
<metadata>
This is a custom SVG webfont generated by Font Squirrel.
Copyright   : Generated from MetaFont bitmap by mftrace 1214 httpwwwxs4allnlhanwenmftrace 
</metadata>
<defs>
<font id="mtdbt2fGG" horiz-adv-x="890" >
<font-face units-per-em="2048" ascent="1638" descent="-410" />
<missing-glyph horiz-adv-x="614" />
<glyph unicode=" "  horiz-adv-x="614" />
<glyph unicode="&#x09;" horiz-adv-x="614" />
<glyph unicode="&#xa0;" horiz-adv-x="614" />
<glyph unicode="!" horiz-adv-x="557" d="M143 109q-2 0 -1 0q0 2 14 12q18 12 55 18q2 2 53 2q53 -2 62 -4q35 -8 53 -20q6 -2 16.5 -10.5t10.5 -10.5q-2 0 -23 10l-29 13l6 -6q18 -12 29 -33q4 -8 4 -21q2 -16 -12 -32l-6 -9l6 2l18 7l13 4l-2 -2q-10 -14 -54 -27h-61h-64q-33 8 -53 21l-28 20q2 0 22 -8l31 -12 l-8 4q-14 10 -29 32q-4 8 -4 23q0 18 12 31l8 8h-8l-6 -2q-8 -4 -10 -6zM170 397v486q0 494 6 506q16 23 57 32q7 1 19 2q6 0 12 -1q20 -1 31 -3q63 -12 86 -57l6 -8v-488q0 -496 -6 -504l-2 -2q-14 -20 -47 -30q-10 -2 -35 -2q-29 -2 -53 6q-53 20 -70 53zM244 4l4 -2v2 l-4 2v-2zM309 137q0 -2 4 -2l-2 2h-2z" />
<glyph unicode="#" horiz-adv-x="1558" d="M117 702q-6 12 -6 23q0 19 18 35q10 10 37 18l12 2l172 2h172v172q0 180 6 193q16 23 58 33q7 1 18 1h12q20 -1 31 -3q63 -12 86 -58l6 -8v-166v-164h41h39v172q0 180 6 193q12 20 50 31q8 2 34 2q29 2 54 -6q53 -20 67 -54l6 -8v-166v-164h156q162 -2 184 -10 q41 -12 61 -41q11 -16 10 -30q0 -12 -7 -23q-14 -20 -49 -31l-9 -2l-174 -2h-172v-129v-131h150q160 0 188 -8q51 -16 68 -49q5 -11 5 -22q0 -19 -17 -36q-14 -14 -37 -20l-11 -2l-174 -2h-172v-172q0 -180 -6 -193q-14 -20 -49 -31q-8 -2 -33 -2h-12q-24 0 -43 7 q-51 16 -68 51l-4 12l-2 164v164h-41h-39v-172q0 -180 -8 -193q-14 -20 -47 -31q-10 -2 -35 -2h-11q-22 0 -42 7q-51 16 -70 51l-4 12v164v164h-155q-164 2 -185 10q-43 14 -62 42q-11 15 -11 30q0 12 8 24q14 23 49 29l12 4h172h172v131v129h-149q-162 0 -189 8 q-51 16 -67 51zM739 383h41h39v131v129h-39h-41v-129v-131z" />
<glyph unicode="$" horiz-adv-x="1001" d="M117 250q14 25 49 33q8 4 35 4q35 0 53 -8q43 -14 59 -37l2 -4q4 -6 6.5 -11.5t4.5 -9.5q20 -41 45 -65q18 -18 30 -25q2 -2 2 43v215v262l-10 4q-66 20 -121 66q-123 98 -139 260q-1 17 -1 33q0 49 9 94q12 88 62 145q20 25 45 41q47 41 133 60q18 4 18 6q4 0 4 63 q0 72 7 84q16 23 57 33q47 0 61 -2q63 -16 86 -57l7 -11v-63v-64l14 -4q80 -29 158 -104q39 -39 47 -55q6 -12 6 -23q0 -19 -19 -35q-23 -20 -67 -22q-31 0 -58 8q-31 8 -65 43l-16 18v-221v-221l8 -2q20 -6 53 -25q162 -84 201 -274q7 -34 6 -70v-18q0 -84 -19 -154 q-31 -111 -122 -168q-45 -23 -64 -28q-39 -16 -61 -17q-2 0 -2 -65q0 -72 -9 -82q-14 -20 -47 -31q-10 -2 -35 -2h-11q-22 0 -42 6q-51 16 -69 51l-5 13v57v61h-6h-4l-9 4.5t-9 2.5q-188 61 -254 217q-8 18 -9 32q1 10 5 19zM352 938q8 -41 19 -64q18 -37 28 -47l4 -4v174 v177q-4 -2 -6 -7q-33 -45 -45 -120q-2 -29 -2 -56t2 -53zM621 348l2 -192q35 45 45 123q6 34 5 70q0 29 -3 61q-6 70 -41 120l-8 11v-193z" />
<glyph unicode="%" horiz-adv-x="1337" d="M111 986.5q0 62.5 2 90.5q12 104 49 170q55 96 180 115h70q135 -16 202 -109q51 -66 68 -196v-90q0 -63 4 -64q0 2 109 193q90 158 104 181t31 32q23 10 55 10q29 2 53 -6q37 -12 58.5 -37t15.5 -47q0 -2 -16 -31l-56 -96l-75 -133l-72 -125l-57 -99l-17 -32l12 4 q43 14 89 14q113 0 196 -67q88 -76 107 -240q2 -25 2 -88.5t-2 -89.5q-12 -96 -35 -146q-35 -72 -92 -106q-61 -35 -136 -36q-16 0 -33 2q-95 9 -167 67q-88 74 -107 237v90q0 68 -4 64q0 -2 -108 -193q-90 -158 -104.5 -181.5t-30.5 -29.5q-23 -12 -56 -12q-35 0 -53 8 q-37 12 -58.5 36t-15.5 46q0 2 148 262l145 254q-6 0 -12 -4q-37 -12 -88 -12q-111 0 -197 65q-88 76 -106 240q-2 27 -2 89.5zM328 964.5q0 -65.5 2 -85.5q8 -68 28 -115l17 -25l8 -8l8 4q41 18 62 99q12 43 12 155q0 90 -6 123q-10 70 -39 102l-8 9q-8 0 -25 -17 q-45 -41 -57 -155q-2 -21 -2 -86.5zM868 332.5q0 -64.5 2 -86.5q8 -66 29 -113q2 -4 6 -10l6 -9q2 -3 4 -5l9 -9l8 4q43 20 61 99q12 41 13 153q0 90 -7 123q-10 70 -38 103l-9 8q-8 0 -24 -17q-45 -41 -58 -155q-2 -21 -2 -85.5z" />
<glyph unicode="&#x26;" horiz-adv-x="1337" d="M113 305q-2 21 -3 42q0 52 15 104q43 162 199 323q23 20 22 27q0 2 -2 18.5t-4 40t-2 37.5q-5 111 -5 185q0 55 3 89q10 82 31 129q14 37 45 66q43 41 114 53q19 2 38.5 2t37.5 -2q70 -14 115 -57q39 -33 51 -92q8 -31 8 -88q0 -63 -8 -97q-31 -164 -184 -327l-17 -19 l4 -22q23 -143 70 -254q32 -72 35 -72q4 0 18 66q27 125 70 205q35 72 90 122q18 20 45 37q68 47 158 60q20 2 36 1q24 0 40 -3q66 -12 86 -56q5 -11 5 -22q0 -19 -18 -35q-18 -18 -69 -23q-6 0 -33 -6q-33 -10 -70 -45q-35 -37 -67 -100q-39 -80 -60 -178q-20 -96 -61 -183 l-8 -18l8 -6q49 -31 110 -47q55 -18 138 -21q45 -2 59 -10q43 -12 62 -41q11 -16 11 -30q0 -12 -7 -23q-14 -20 -50 -31q-10 -2 -49 -2q-193 0 -352 82l-20 8l-9 -8q-4 -4 -22 -16q-68 -51 -158 -66q-14 -2 -55 -2t-60 2q-143 14 -229 86q-90 72 -102 217zM330 268 q12 -82 53 -110q25 -16 80 -17q25 0 35 2q20 6 32 17q23 14 52 43l6 8l-13 12q-109 109 -174 305l-4 13q-4 0 -22 -41q-39 -76 -45 -154q-2 -20 -2 -40t2 -38zM551 1114l4 8q2 8 6 54v18l-4 -14q-2 -14 -4 -32t-2 -26v-8z" />
<glyph unicode="(" horiz-adv-x="724" d="M137 522q0 422 103 690q53 141 131 248q20 35 41 53q18 14 47 21q14 2 29.5 2t31.5 -2q90 -22 91 -78q0 -17 -17 -39q-57 -70 -98 -157q-37 -72 -62 -148q-80 -238 -80 -610q0 -408 97 -660q53 -143 139 -252q2 -2 4 -6t4 -7t4 -5l4 -4q4 -11 5 -21q0 -13 -8 -25 q-13 -22 -46 -30q-20 -5 -37 -5q-13 0 -24 3q-59 10 -88 45q-43 55 -80 115q-191 321 -191 872z" />
<glyph unicode=")" horiz-adv-x="724" d="M112 -433q0 18 17 42q57 72 98 155q35 72 62 148q78 240 78 610q0 412 -95 662q-55 137 -139 250q-10 10 -16 22q-5 11 -6 22q0 14 10 26q16 22 53 30q16 2 31.5 2t30.5 -2q51 -10 81 -49q166 -209 226 -508q41 -199 41 -475q0 -422 -103 -690q-55 -150 -131 -248 q-31 -47 -41 -53q-10 -10 -37 -19q-19 -5 -36 -5q-13 0 -25 3q-99 17 -99 77z" />
<glyph unicode="*" horiz-adv-x="1001" d="M61 895q-1 6 -1 11q0 18 16 34q2 0 18.5 11.5t53 33l65.5 39.5l129 80l-115 72l-58 35l-49 31q-17 11 -22 13q-31 18 -37 48q-2 7 -2 12q0 26 35 43q20 10 56 10q27 0 32 -2q18 -2 41 -12l88 -54l78 -49q2 0 2 117q0 123 6 135q20 23 58 33q7 1 18 1h13q22 -1 30 -3 q68 -14 86 -57l6 -9v-102l2 -98l74 45q59 39 82 49q23 9 47 9q27 0 55 -11q49 -14 66 -48q6 -12 6 -24q0 -19 -18 -35q-8 -8 -136 -84l-62 -40l-50 -31l-17 -11l125 -75q129 -80 136 -88q24 -21 23 -42q0 -12 -7 -24q-12 -20 -49 -31q-33 -8 -62 -2q-29 4 -47 15q-2 0 -14 7 t-33.5 21.5t-40.5 24.5l-78 47q-2 0 -2 -115q0 -123 -6 -135q-12 -20 -49 -31q-8 -2 -33 -2h-12q-24 0 -43 7q-51 16 -68 51l-4 12l-2 98v101l-72 -43q-14 -8 -34.5 -21.5t-30.5 -19.5t-12 -8q-26 -10 -56 -10q-13 0 -26 1q-85 15 -99 70z" />
<glyph unicode="+" horiz-adv-x="1558" d="M117 547q12 20 49 31l12 2l246 2h246v272q0 279 8 291q16 27 57 33q14 2 29.5 2t32.5 -2q63 -16 86 -58l4 -10v-264v-264h229h103q135 -2 153 -9q2 -2 4 -2q41 -12 61 -41q11 -16 10 -29q0 -12 -7 -24q-14 -20 -47 -31l-11 -2l-247 -2h-248v-272q0 -279 -6 -291 q-14 -20 -47 -31q-10 -2 -35 -2h-12q-23 0 -44 7q-51 16 -67 51l-4 12l-2 262v264h-230h-102q-135 2 -152 9l-4 2q-43 12 -62 41q-11 16 -11 29q1 13 8 24z" />
<glyph unicode="," horiz-adv-x="557" d="M143 109q-2 0 -1 0q0 2 14 12q18 12 55 18q2 2 53 2q53 -2 62 -4q35 -8 53 -20q6 -2 16.5 -10.5t10.5 -10.5q-2 0 -23 10q-6 2 -11 4l-10 5l-4 2h-2q29 -25 43 -45q4 -12 9 -21q8 -23 8 -114q2 -88 8 -136q1 -9 0 -16q0 -22 -4 -29q-12 -27 -49 -35q-8 -2 -33 -2h-12 q-24 0 -43 7q-47 16 -68 49q-14 35 -16 174v65h-6q-43 23 -43 29q2 0 22 -8l25 -8h-2q-18 12 -29 32q-4 8 -4 23q0 18 12 31l8 8h-8l-6 -2q-8 -4 -10 -6zM309 137q0 -2 4 -2l-2 2h-2z" />
<glyph unicode="-" horiz-adv-x="667" d="M28 428q-7 13 -7 25q0 18 16 34.5t47 22.5q8 2 190 2q186 -2 209 -10q41 -12 61 -41q11 -16 10 -30q0 -12 -7 -23q-14 -20 -49 -31l-11 -2h-182q-193 0 -211 6q-49 14 -66 47z" />
<glyph unicode="." horiz-adv-x="557" d="M143 109q-2 0 -1 0q0 2 14 12q18 12 55 18q2 2 53 2q53 -2 62 -4q35 -8 53 -20q6 -2 16.5 -10.5t10.5 -10.5q-2 0 -23 10l-29 13l6 -6q18 -12 29 -33q4 -8 4 -21q2 -16 -12 -32l-6 -9l6 2l18 7l13 4l-2 -2q-10 -14 -54 -27h-61h-64q-33 8 -53 21l-28 20q2 0 22 -8l31 -12 l-8 4q-14 10 -29 32q-4 8 -4 23q0 18 12 31l8 8h-8l-6 -2q-8 -4 -10 -6zM244 4l4 -2v2l-4 2v-2zM309 137q0 -2 4 -2l-2 2h-2z" />
<glyph unicode="/" horiz-adv-x="1001" d="M113 -432q0 16 282 967q285 963 287 964q12 29 57 35q14 2 29.5 2t32.5 -2q68 -16 86 -57q4 -10 4 -21q0 -8 -283 -967q-279 -948 -286 -964q-12 -23 -50 -33q-8 -2 -32 -2h-12q-24 0 -44 6q-51 16 -67 51q-4 11 -4 21z" />
<glyph unicode="0" horiz-adv-x="946" d="M111 653q0 391 6 430q16 143 108 213q76 53 193 66h43q45 0 92 -8q51 -10 102 -35q92 -45 138 -133q27 -49 38 -135q2 -16 3 -381q0 -393 -5 -430q-14 -121 -88 -195q-70 -66 -190 -84h-62q-61 0 -98 8q-59 12 -100 33q-96 49 -137 133q-31 57 -41 137q0 49 -2 381z M330 254q12 -92 53 -131q20 -23 72 -23q43 0 73 17q70 37 86 164q2 12 2 391q0 377 -2 395q-10 66 -26 94q-25 51 -66 58q-8 4 -47 4q-35 -6 -59 -17q-70 -39 -86 -164v-393v-395z" />
<glyph unicode="1" horiz-adv-x="946" d="M168 887q-2 5 -2 10q0 9 6 18q0 4 117 211q115 205 121 209q18 18 49 25q5 1 17 1h12q22 -1 32 -3q63 -12 86 -58l4 -8v-618q0 -621 -2 -627q-2 -12 -14 -24q-8 -10 -37 -19q-10 -2 -35 -2h-11q-23 0 -44 6q-51 16 -68 51l-4 13l-2 403v406l-10 -19q-14 -27 -35 -35 q-16 -8 -49 -12q-33 0 -59 8q-62 19 -72 64z" />
<glyph unicode="2" horiz-adv-x="946" d="M113 993q-3 9 -3 26q0 30 9 85q14 100 76 164q80 80 223 92q8 2 37.5 2t42.5 -2q90 -10 157 -43q80 -39 123 -107q55 -86 56 -225q0 -166 -132 -387q-45 -72 -204 -307l-105 -150l170 -2q180 -2 201 -10q41 -12 60 -41q11 -16 11 -30q0 -12 -8 -23q-14 -20 -49 -31 l-10 -2h-276q-289 0 -308 6q-51 16 -67 51q-5 11 -6 22q0 14 10 28q4 4 143 210q176 254 191 277q162 248 161 408q0 119 -41 178q-16 27 -49 37q-19 5 -38 5q-35 0 -66 -18q-39 -16 -64 -65q-31 -55 -30 -152q0 -29 -19 -45q-14 -14 -37 -20q-25 -6 -61 -2q-86 16 -98 71z " />
<glyph unicode="3" horiz-adv-x="946" d="M115 213q-4 8 -4 17q0 11 6 22q12 27 49 35q8 2 35 2q29 2 53 -6q35 -12 57 -35q6 -8 17 -29q23 -68 73 -102q27 -16 56 -17q41 0 71 17q70 37 86 164q2 12 2 151t-2 156q-6 39 -14 65q-20 63 -57 80q-20 10 -70 10q-43 2 -70 11q-35 10 -55 34.5t-14 47.5l90 176l90 170 h-123q-127 0 -153 8q-41 14 -60.5 43t-3.5 53q16 23 57 33q8 2 230 2h96q129 -2 145 -8l5 -2q37 -10 56 -35t13 -47q0 -8 -94 -185l-92 -178q6 -4 14 -6q100 -35 156 -102q51 -68 65 -150q8 -45 9 -180q0 -154 -5 -188q-14 -121 -88 -195q-70 -66 -190 -84q-25 -4 -51 -4 q-33 0 -68 6q-66 8 -127 39q-141 70 -190 211z" />
<glyph unicode="4" horiz-adv-x="946" d="M94 432q-3 5 -2 16q0 15 4 39q8 43 82 392q18 92 44 206.5t37 169t11 56.5q4 16 6 16q16 23 58 33q7 1 18 1h13q20 -1 30 -3q68 -14 86 -58q4 -8 4 -20q0 -6 -79 -387l-82 -379q0 -4 63 -4h64v160q0 166 8 178q14 20 49 31q8 2 33 2q29 1 53 -7q53 -20 70 -53l4 -8v-151 v-152h71q76 0 101 -8q43 -14 62 -42q11 -15 11 -30q0 -12 -8 -24q-14 -20 -49 -31q-10 -2 -98 -4h-90v-158q0 -166 -6 -178q-14 -20 -48 -31q-10 -2 -34 -2h-12q-23 0 -44 6q-51 16 -67 51l-4 13l-2 149v150h-132q-133 2 -139 4q-66 14 -86 57z" />
<glyph unicode="5" horiz-adv-x="946" d="M115 213q-4 8 -4 17q0 11 6 22q12 27 49 35q8 2 35 2q29 2 53 -6q35 -12 57 -35q6 -8 17 -29q23 -68 73 -102q27 -16 56 -17q41 0 71 17q70 37 86 164q2 12 2 151t-2 156q-10 66 -26 94q-27 55 -86 61q-23 0 -37 -8q-55 -25 -82 -98q-4 -12 -8 -16q-10 -23 -45 -29 q-31 -8 -62 -4q-41 8 -68.5 27.5t-31.5 43.5q-2 6 -2 310l2 303l2 8q16 31 61 37q8 4 230 4h96q129 -2 145 -8l5 -2q43 -14 62 -42t3 -55q-14 -23 -49 -28l-10 -4h-166h-164v-154v-151h4q25 6 72 6t94 -8q51 -10 102 -35q92 -45 138 -133q18 -31 32 -99q8 -45 9 -180 q0 -154 -5 -188q-14 -121 -88 -195q-70 -66 -190 -84q-25 -4 -51 -4q-33 0 -68 6q-66 8 -127 39q-141 70 -190 211z" />
<glyph unicode="6" horiz-adv-x="946" d="M111 653q0 391 6 430q16 143 108 213q76 53 193 66q82 0 96 -2q96 -16 158 -47q88 -43 133 -117q29 -39 29 -64q0 -40 -54 -53q-31 -8 -61 -4q-59 14 -84 41q-6 6 -14 23q-14 31 -31 43q-33 35 -82 41q-10 1 -20 1q-37 0 -72 -18q-68 -37 -86 -157q0 -33 -2 -99 q0 -84 2 -84q29 8 65 15q12 2 60 2q61 0 98 -9q51 -10 102 -34q92 -45 138 -133q18 -31 32 -99q8 -45 9 -180q0 -154 -5 -188q-14 -121 -88 -195q-70 -66 -190 -84h-62q-61 0 -98 8q-59 12 -100 33q-96 49 -137 133q-31 57 -41 137q0 49 -2 381zM330 254q12 -92 53 -131 q20 -23 72 -23q43 0 73 17q70 37 86 164q2 12 2 151t-2 156q-10 66 -26 94q-25 51 -66 57q-8 4 -47 4q-35 -6 -59 -16q-70 -39 -86 -164v-151v-158z" />
<glyph unicode="7" horiz-adv-x="946" d="M111 1169l2 103l2 6q18 33 59 39q8 2 313 2h134q178 -2 194 -8q2 -2 4 -2q66 -20 72 -66q0 -4 -170 -604q-172 -598 -174 -602q-10 -23 -49 -33q-8 -2 -33 -2h-12q-24 0 -43 6q-51 16 -68 51q-8 14 4 61.5t146 512.5q156 543 157 545q0 2 -160 2h-161v-70q0 -80 -6 -90 q-14 -20 -50 -31q-25 -6 -61 -2q-88 18 -98 72q-2 4 -2 110z" />
<glyph unicode="8" horiz-adv-x="946" d="M111 371q0 115 6 149q16 150 114 219l17 9l-10 10q-66 72 -80 198q-2 16 -2 64.5t2 66.5q12 102 47 156q63 100 207 117q19 2 40.5 2t45.5 -2q131 -12 207 -92q68 -70 81 -201q2 -16 2 -64.5t-2 -64.5q-12 -131 -77 -197l-11 -10l4 -2q25 -18 41 -35q63 -72 82 -170 q8 -41 9 -137q0 -115 -5 -147q-14 -121 -88 -195q-70 -66 -190 -84h-62q-61 0 -98 8q-59 12 -100 33q-96 49 -137 133q-25 45 -33 101q-8 41 -10 135zM330 254q12 -92 53 -131q20 -23 72 -23q43 0 73 17q72 35 86 157q2 14 2 115q0 98 -2 117q-10 63 -26 92q-25 51 -66 59 q-25 6 -47 2q-35 -2 -59 -16q-68 -33 -86 -158v-114v-117zM379 915q14 -90 53 -110q8 -4 23 -4q45 0 75 39q27 37 37 100q5 40 5 82t-5 86q-14 88 -53 111q-12 4 -20 4h-9q-43 0 -69 -39q-31 -37 -37 -101q-7 -40 -7 -82t7 -86z" />
<glyph unicode="9" horiz-adv-x="946" d="M111 893q0 154 6 190q16 143 108 213q76 53 193 66h43q45 0 92 -8q51 -10 102 -35q92 -45 138 -133q27 -49 38 -135q2 -16 3 -381q0 -393 -5 -430q-14 -121 -88 -195q-70 -66 -190 -84q-29 -2 -57 -2l-58 2q-92 12 -164 49q-104 51 -149 144q-16 31 -6 55q12 23 49 35 q8 2 35 2h7q35 0 68 -17q31 -12 50 -47q12 -29 28 -43q33 -33 82 -39q11 -1 22 -1q39 0 72 18q68 35 84 155q2 12 2 99q0 84 -2 84q-27 -8 -63 -15h-62q-61 0 -98 9q-59 12 -100 32q-96 49 -137 133q-25 45 -33 101q-8 45 -10 178zM330 733q12 -92 53 -131q20 -23 72 -22 q43 0 73 16q70 37 86 164q2 12 2 151.5t-2 155.5q-10 66 -26 94q-25 51 -66 58q-8 4 -47 4q-35 -6 -59 -17q-70 -39 -86 -164v-151v-158z" />
<glyph unicode=":" horiz-adv-x="557" d="M143 109q-2 0 -1 0q0 2 14 12q18 12 55 18q2 2 53 2q53 -2 62 -4q35 -8 53 -20q6 -2 16.5 -10.5t10.5 -10.5q-2 0 -23 10l-29 13l6 -6q18 -12 29 -33q4 -8 4 -21q2 -16 -12 -32l-6 -9l6 2l18 7l13 4l-2 -2q-10 -14 -54 -27h-61h-64q-33 8 -53 21l-28 20q2 0 22 -8l31 -12 l-8 4q-14 10 -29 32q-4 8 -4 23q0 18 12 31l8 8h-8l-6 -2q-8 -4 -10 -6zM143 854l13 10q18 12 55 19q2 2 53 2q53 -2 62 -4q29 -6 53 -19l27 -20l-5 2q-2 0 -8 2t-10 4l-29 12q2 -2 6 -4q14 -10 29 -33q4 -8 4 -20q2 -18 -12 -33l-6 -8h6l8 2q6 4 10 6l13 4q0 -2 -2 -4 q-16 -18 -54 -24q-8 -2 -61 -2.5t-64 2.5q-41 10 -53 20q-29 10 -28 20q6 0 22 -10l31 -12l-2 2q-4 2 -6 4q-18 12 -29 33q-4 8 -4 20q0 18 12 33l8 8l-8 -2q-2 -2 -8 -4t-8 -2zM244 748h4l-4 2v-2zM244 4l4 -2v2l-4 2v-2zM309 881q0 -2 4 -2l-2 2l-2 2q-1 0 -1 -0.5t1 -1.5 zM309 137q0 -2 4 -2l-2 2h-2z" />
<glyph unicode=";" horiz-adv-x="557" d="M143 109q-2 0 -1 0q0 2 14 12q18 12 55 18q2 2 53 2q53 -2 62 -4q35 -8 53 -20q6 -2 16.5 -10.5t10.5 -10.5q-2 0 -23 10q-6 2 -11 4.5t-10 4.5l-4 2h-2q29 -25 43 -45q4 -12 9 -21q8 -23 8 -114q2 -88 8 -136q1 -9 0 -16q0 -22 -4 -29q-12 -27 -49 -35q-8 -2 -33 -2h-12 q-24 0 -43 7q-47 16 -68 49q-14 35 -16 174v65h-6q-43 23 -44 29q2 0 23 -8l25 -8h-2q-18 12 -29 32q-4 8 -4 23q0 18 12 31l8 8h-8l-6 -2q-8 -4 -10 -6zM143 854l13 10q18 12 55 19q2 2 53 2q53 -2 62 -4q29 -6 53 -19l27 -20l-5 2q-2 0 -8 2t-10 4l-29 12q2 -2 6 -4 q14 -10 29 -33q4 -8 4 -20q2 -18 -12 -33l-6 -8h6l8 2q6 4 10 6l13 4q0 -2 -2 -4q-16 -18 -54 -24q-8 -2 -61 -2.5t-64 2.5q-41 10 -53 20q-29 10 -28 20q6 0 22 -10l31 -12l-2 2q-4 2 -6 4q-18 12 -29 33q-4 8 -4 20q0 18 12 33l8 8l-8 -2q-2 -2 -8 -4t-8 -2zM244 748h4 l-4 2v-2zM309 881q0 -2 4 -2l-2 2l-2 2q-1 0 -1 -0.5t1 -1.5zM309 137q0 -2 4 -2l-2 2h-2z" />
<glyph unicode="=" horiz-adv-x="1558" d="M117 702q-5 11 -6 22q0 18 16 34t47 22q8 2 592 2q582 -2 590 -4q66 -16 86 -55q5 -11 5 -22q0 -19 -17 -35q-12 -12 -39 -19l-9 -4h-579h-2h-2h-4h-2h-2h-3h-2h-4h-2h-2h-2h-2h-4h-2h-2h-2h-2h-2h-4h-2h-2h-2h-2h-3h-4h-2h-2h-2h-2h-2h-4h-2h-2h-2h-2h-2h-2h-4h-2h-2h-2 h-3h-2h-2h-4h-2h-2h-2h-2h-2h-2h-4h-2h-2h-2h-2h-2h-2h-2h-2h-5h-2h-2h-2h-2h-2h-2h-2h-2h-2h-4h-2h-2h-2h-2h-2h-2h-2h-3h-2h-2h-2h-2h-4h-2h-2h-2h-2h-2h-2h-2h-2h-2h-2h-2h-2h-2h-2h-3h-2h-2h-2h-2h-2h-2h-4h-2h-2h-2h-2h-2h-2h-2h-2h-2h-2h-4q-328 0 -347 6q-2 2 -4 2 q-51 16 -67 51zM118 301q-7 13 -7 25q0 18 16 34q23 14 47 21q8 2 586 2q586 0 614 -8q51 -16 68 -51q6 -12 6 -23q0 -19 -18 -35q-12 -12 -39 -18l-11 -2h-583h-308q-287 0 -301 4q-2 2 -4 2q-49 16 -66 49z" />
<glyph unicode="?" horiz-adv-x="946" d="M111 1110q0 6 16 66q57 180 199 231q14 6 71 14q5 1 24 2q9 0 21 -1q37 -1 52 -3q55 -6 108 -24q57 -23 76 -37q115 -70 143 -209q13 -48 13 -98v-25q0 -31 -11 -72q-29 -111 -145 -215q-104 -102 -123 -192q-2 -14 -2 -90q0 -84 -6 -97q-14 -20 -49 -30q-8 -2 -33 -2 q-31 -2 -55 6q-53 20 -68 53l-4 10v82q0 96 8 129q4 25 25 66q39 76 114 147q61 59 86 99q35 51 45 106q1 12 2 28q0 32 -6 79q-12 72 -45 110q-31 37 -86 39q-29 2 -43 -8q-72 -41 -108 -182q-8 -31 -21 -41q-23 -20 -65 -23h-7q-49 0 -92 27q-34 28 -34 55zM309 109 q6 8 13 12q18 12 57 18q0 2 53 2q51 -2 62 -4q37 -10 51 -20q6 -2 16 -10.5t10 -10.5q-10 4 -20 10l-31 13l6 -6q23 -14 29 -33q4 -8 4 -21q2 -18 -12 -32l-6 -9l6 2l18 7l15 4q-2 0 -5 -2q-10 -14 -53 -27h-61h-62q-37 8 -55 21q-4 2 -11 7t-11 9l-5 4l21 -8l31 -12 q-3 2 -7 4q-20 14 -28 32q-4 8 -4 23q-2 18 12 31l6 8h-6l-6 -2l-12 -6zM412 4q0 -2 4 -2l-2 2l-2 2q-1 0 -1 -0.5t1 -1.5zM475 137q2 -2 4 -2l-2 2h-2z" />
<glyph unicode="@" horiz-adv-x="1558" d="M111 686v11q0 348 133 526q47 63 121 114q43 27 65 37q121 59 281 68q12 2 52 2t56 -2q225 -16 373 -115q94 -66 145 -149q92 -141 107 -361q2 -29 2 -89t-2 -83q-12 -113 -55 -180q-47 -78 -152 -105q-33 -8 -72 -10q-35 0 -71 6q-35 8 -60 19l-4 4l-8 -6 q-55 -35 -154 -47q-20 -2 -65 -2t-64 2q-86 8 -153 41q-135 68 -166 213q-6 37 -6 129q0 16 -1 31q0 60 7 98q12 72 51 127q20 25 49 49q59 43 148 59q49 8 96 8q41 0 82 -6q63 -6 115 -28l8 -5l10 5q18 5 38 5q25 0 52 -9q49 -15 68 -46q8 -14 8 -258v-54v-50 q0 -23 1 -44.5t1 -37.5v-29v-20v-6q4 0 27 18q29 29 45 96q12 59 12 160q-6 143 -27 221q-16 55 -26 82q-86 193 -283 221q-51 8 -100 8q-105 0 -199 -36q-127 -53 -197 -189q-57 -119 -69 -293q-2 -25 -2 -95t2 -95q12 -135 39 -219q37 -106 102 -176q82 -78 211 -97 q40 -5 95 -5q28 0 59 1q94 4 161 17q158 31 238 127q20 25 37 28q16 8 55 9q33 0 70 -17q51 -26 50 -61q0 -6 -1 -13q-4 -10 -6 -12q-8 -14 -36 -43t-48 -43q-147 -113 -432 -131q-29 -2 -107 -2t-94 2q-104 10 -195 39q-178 57 -280 195q-117 156 -135 419q0 43 -2 72z M629 707q0 -113 12 -150q12 -45 37 -70q14 -14 37 -20q21 -7 47 -7q30 0 67 9q76 18 95 106q4 25 4 146q0 117 -8 143q-12 33 -29 49q-16 20 -47 23q-14 4 -72 4q-23 -2 -45 -10q-76 -27 -94 -142q-2 -7 -4 -81z" />
<glyph unicode="A" horiz-adv-x="1224" d="M113 80q0 12 196 665q199 655 201 660q14 29 57 35q16 2 31.5 2t30.5 -2q68 -16 86 -56q2 -6 199.5 -660t199.5 -663q0 -14 -6 -26q-14 -20 -49 -31q-8 -2 -33 -2h-12q-24 0 -43 6q-53 16 -68 51q-2 2 -51 168l-51 164h-185h-186l-53 -174q-51 -172 -55 -180 q-12 -23 -50 -33q-8 -2 -32 -2h-12q-24 0 -44 6q-51 16 -67 51q-4 11 -4 21zM473 530h143h144v2l-10 31q-8 31 -28 92l-36 115l-70 236q-143 -474 -143 -476z" />
<glyph unicode="B" horiz-adv-x="1224" d="M166 715l2 637l2 6q16 33 59 39q8 2 217 2t230 -2q111 -14 190 -54q104 -51 152 -145q18 -47 22 -65q16 -57 16 -118q0 -25 -2 -50q-9 -88 -48 -148q-31 -49 -68 -76l-14 -10l14 -8q72 -45 111 -102q64 -97 63 -228v-16q-2 -137 -70 -230q-23 -33 -49 -51 q-100 -82 -278 -94q-12 -2 -228 -2q-221 0 -247 8q-66 20 -72 64q-2 6 -2 643zM383 139h125q170 0 221 13q61 14 98 55q33 31 50 84q16 45 18 104v19q0 104 -43 170q-16 25 -41 41q-37 27 -117 32h-166h-145v-258v-260zM383 797h125q137 4 139 4q49 6 86 22q76 37 96 129 q8 29 11 74q0 90 -27 145q-12 27 -29 43q-37 39 -120 46h-152h-129v-232v-231z" />
<glyph unicode="C" horiz-adv-x="1337" d="M111 711q0 334 116 508q72 104 187 159q80 41 166 54q12 2 77 10q10 1 32 1h25q42 -1 56 -3q176 -23 299 -121q57 -47 98 -105q58 -80 58 -120q0 -18 -19 -35q-20 -20 -65 -25q-68 0 -111 37q-10 10 -20 31q-29 74 -76 117q-31 31 -60 47q-62 38 -140 37q-28 0 -58 -5 q-145 -18 -223 -120q-96 -119 -119 -328q-4 -51 -4 -160q0 -135 10 -198q27 -188 117 -293q33 -39 82 -64q57 -29 137 -35q12 -1 23 0q105 0 196 66q35 31 66 65q33 43 45 82q2 4 6 11l2 6q12 27 49 32q8 4 35 5q35 0 53 -9q51 -16 68 -49q10 -20 2 -41q-20 -59 -68 -121 q-29 -39 -68 -67q-25 -20 -63 -45q-92 -57 -223 -74q-18 -2 -64.5 -2t-68.5 2q-137 18 -238 68q-76 39 -129 90q-70 68 -113 162q-75 164 -75 430z" />
<glyph unicode="D" horiz-adv-x="1280" d="M166 715l2 637l2 6q16 33 59 39q8 2 203 2q203 0 256 -8q199 -35 313 -156q92 -96 134 -242q33 -125 32 -307q0 -291 -80 -450q-31 -61 -75 -107q-23 -25 -58 -49q-88 -61 -202 -76l-21 -2l-225 -2q-238 0 -266 8q-66 20 -72 64q-2 6 -2 643zM383 139h145q160 2 187 10 q63 18 106 66q35 35 62 86q53 113 65 291q3 48 3 101q0 70 -5 147q-18 197 -98 309q-63 88 -193 108q-12 2 -143 3h-129v-560v-561z" />
<glyph unicode="E" horiz-adv-x="1114" d="M166 715l2 637l2 6q16 33 59 39q8 2 342 2q332 0 359 -8q43 -14 62 -42q11 -15 11 -30q0 -12 -8 -25q-12 -20 -49 -30l-10 -2l-277 -2h-276v-230v-233h203q207 0 233 -9q41 -14 59.5 -41.5t4.5 -54.5q-14 -20 -47 -30l-13 -3l-221 -2h-219v-258v-260h260h115 q152 -2 168 -8l4 -2q43 -12 62 -41q11 -16 11 -30q0 -12 -8 -23q-12 -20 -49 -31l-10 -2l-328 -2q-340 0 -368 8q-66 20 -72 64q-2 6 -2 643z" />
<glyph unicode="F" horiz-adv-x="1058" d="M168 72v639v641l2 6q16 33 59 39q8 2 342 2q332 0 359 -8q43 -14 62 -42q11 -15 11 -30q0 -12 -8 -25q-12 -20 -49 -30l-10 -2l-277 -2h-276v-244v-246h203h90q121 -2 139 -8l4 -2q41 -12 60.5 -41t3.5 -53q-14 -20 -47 -31l-13 -2l-221 -2h-219v-289q0 -295 -6 -307 q-12 -20 -49 -31q-8 -2 -33 -2h-12q-24 0 -43 6q-51 16 -68 51z" />
<glyph unicode="G" horiz-adv-x="1337" d="M111 711q0 266 73 426q43 94 109 155q137 131 369 150q21 2 46 1q38 0 85 -3q70 -8 145 -31q168 -51 256 -182q23 -35 27 -47q4 -11 4 -21q0 -28 -35 -45q-16 -8 -49 -12h-7q-49 0 -92 26q-18 14 -30 37q-39 72 -105 105q-64 34 -152 33h-28q-55 -2 -98 -17 q-104 -29 -166 -100q-106 -121 -127 -332q-9 -84 -9 -166q0 -91 11 -178q18 -154 84 -260q59 -90 149 -125q66 -27 139 -27q36 0 74 6q152 25 217 136l7 12v156v155h-134q-147 0 -174 8q-61 18 -71 64q-6 12 4 29q12 23 49 34l12 4h213q219 0 244 -8q53 -20 68 -53l6 -8 v-209q0 -182 -1 -201.5t-14 -42.5q-31 -49 -61 -80q-41 -37 -62 -51q-106 -70 -262 -88q-36 -2 -72.5 -2t-74.5 2q-143 18 -242 68q-141 70 -221 200q-104 177 -104 482z" />
<glyph unicode="H" horiz-adv-x="1280" d="M166 707q0 639 2 647q2 12 14 20q14 18 47 25q49 0 62 -2q68 -16 86 -58l6 -10v-278v-281h256h256v289q0 295 6 307q14 23 49 29q8 4 35 4q35 0 53 -8q51 -16 68 -52l6 -10v-637q0 -639 -2 -645q-6 -14 -16.5 -24.5t-36.5 -18.5q-8 -2 -33 -2h-12q-24 0 -43 6 q-51 16 -68 51l-4 13l-2 278v281h-256h-256v-289q0 -295 -6 -307q-12 -20 -49 -31q-8 -2 -33 -2h-12q-24 0 -43 6q-51 16 -68 51l-4 13z" />
<glyph unicode="I" horiz-adv-x="401" d="M90 707q0 639 2 647q2 12 14 20q14 18 48 25q49 0 61 -2q68 -16 86 -58l6 -10v-637q0 -639 -2 -645q-6 -14 -16 -24.5t-37 -18.5q-8 -2 -33 -2h-12q-24 0 -43 6q-51 16 -68 51l-4 13z" />
<glyph unicode="J" horiz-adv-x="946" d="M111 418q0 18 6 31q12 25 49 36q8 2 35 2q29 2 53 -6q53 -20 68 -53l4 -8l2 -41q2 -113 22 -174q12 -41 33 -72q12 -23 31 -31q9 -4 19 -4q31 0 67 43q18 25 35 72q23 66 24 147q2 16 2 506q0 487 6 500q20 27 58 33q16 2 31.5 2t29.5 -2q68 -16 86 -58l6 -10v-495 q0 -506 -6 -557q-12 -115 -61 -195q-43 -68 -119 -98q-64 -27 -131 -27q-50 0 -102 14q-122 35 -181 131q-49 80 -61 207q-6 44 -6 107z" />
<glyph unicode="K" horiz-adv-x="1280" d="M166 707q0 639 2 647q2 12 14 20q14 18 47 25q49 0 62 -2q68 -16 86 -58l6 -10v-319l2 -320l274 340q270 336 283 348q12 10 37 17q8 4 35 4q35 0 53 -8q51 -16 68 -52q4 -10 4 -20t-4 -19q-2 -6 -172 -217l-82 -100l-66 -80l-20 -26q-2 -2 184 -404q180 -381 188 -407 q6 -45 -53 -62q-10 -2 -35 -2h-11q-23 0 -44 6q-35 12 -57 35q-6 6 -170 358l-142 304l-4 -3q0 -2 -135 -167l-133 -164v-160q0 -164 -6 -176q-12 -20 -49 -31q-8 -2 -33 -2h-12q-24 0 -43 6q-51 16 -68 51l-4 13z" />
<glyph unicode="L" horiz-adv-x="1114" d="M166 711q0 635 2 643q6 12 14 20q14 18 47 25q49 0 62 -2q68 -16 86 -58l6 -10v-594v-596h260h115q152 -2 168 -8l4 -2q43 -12 62 -41q11 -16 11 -30q0 -12 -8 -23q-12 -20 -49 -31l-10 -2l-328 -2q-340 0 -368 8q-59 18 -72 62q-2 6 -2 641z" />
<glyph unicode="M" horiz-adv-x="1392" d="M166 707q0 639 2 647q2 12 14 20q14 18 47 25q49 0 62 -2q43 -8 74 -39q12 -12 163 -244l160 -237l72 108l166 246l85 127.5t29 27.5q23 12 58 13q33 0 53 -8q51 -16 68 -52l6 -10v-637q0 -639 -4 -645q-2 -12 -15 -24q-10 -10 -37 -19q-10 -2 -34 -2h-12q-22 0 -42 6 q-51 16 -69 51l-4 13v454v455l-109 -162q-106 -160 -113 -166q-8 -10 -36 -18q-10 -2 -35 -2q-29 -2 -56 6q-37 10 -55 33q-2 4 -112 168l-107 161l-2 -477v-154v-119q0 -48 -1 -86t-1 -60v-35v-21v-6q-12 -29 -53 -39q-8 -2 -33 -2h-12q-24 0 -43 6q-51 16 -68 51l-4 13z " />
<glyph unicode="N" horiz-adv-x="1280" d="M166 707q0 639 2 647q2 12 14 20q14 18 47 25q49 0 62 -2q53 -14 78 -43q0 -2 34 -54l103 -153l129 -195l260 -397v397v129v100q0 40 1 71.5t1 50.5v30v19v4q12 29 53 39q8 4 35 4q35 0 53 -8q51 -16 68 -52l6 -10v-637q0 -639 -2 -645q-6 -14 -16.5 -24.5t-36.5 -18.5 q-8 -2 -33 -2h-12q-24 0 -43 6q-51 16 -68 51l-4 13l-2 73v74l-256 387l-254 389l-2 -473v-153v-119q0 -47 -1 -85t-1 -60v-35v-21v-6q-12 -29 -53 -39q-8 -2 -33 -2h-12q-24 0 -43 6q-51 16 -68 51l-4 13z" />
<glyph unicode="O" horiz-adv-x="1337" d="M111 682v15q0 307 82 479q39 76 88 129q45 37 69 53q49 35 111 55q78 25 147 29q3 2 15.5 2t33.5 -2q49 0 66 -2q188 -25 311 -135q113 -106 156 -283q25 -92 33 -213q0 -53 2 -88v-15q0 -307 -82 -479q-39 -76 -88 -129q-27 -25 -70 -55q-53 -33 -111 -53 q-51 -16 -122 -29q-33 -2 -66 -2l-65 2q-195 25 -320 137q-113 102 -156 283q-25 92 -32 213q0 53 -2 88zM330 575q12 -176 57 -278q66 -156 191 -188q27 -8 71 -9q78 0 137 31q111 53 168 199q53 144 54 391v18q-4 109 -7 142q-18 176 -86 288q-66 113 -186 131 q-30 3 -51 3h-19q-147 -12 -229 -138q-82 -123 -96 -327q-7 -77 -8 -157q1 -53 4 -106z" />
<glyph unicode="P" horiz-adv-x="1224" d="M168 72v639v641l2 6q16 33 59 39q8 2 234 2q223 0 248 -4q106 -12 178 -45q106 -47 160 -127q64 -97 63 -228v-16q-2 -137 -70 -229q-23 -33 -49 -52q-100 -82 -278 -94q-12 -2 -176 -2h-156v-274q0 -281 -6 -293q-12 -20 -49 -31q-8 -2 -33 -2h-12q-24 0 -43 6 q-51 16 -68 51zM383 741h125q170 0 221 13q61 14 98 55q33 31 50 84q16 45 18 104v19q0 104 -43 170q-16 25 -41 41q-37 27 -117 33h-166h-145v-259v-260z" />
<glyph unicode="Q" horiz-adv-x="1337" d="M111 682v15q0 307 82 479q39 76 88 129q45 37 69 53q49 35 111 55q78 25 147 29q3 2 15.5 2t33.5 -2q49 0 66 -2q188 -25 311 -135q113 -106 156 -283q25 -92 33 -213q0 -53 2 -88v-15q0 -307 -82 -479q-39 -76 -88 -129q-29 -27 -68 -53q-18 -10 -18 -14l67 -113l34 -56 l28 -46q10 -16 10 -19q10 -25 -3 -45t-46 -31q-10 -2 -35 -2h-11q-23 0 -44 7q-45 14 -60 38q-4 4 -63 107l-58 96h-6q-45 -8 -95 -8q-35 0 -73 4q-184 20 -313 135q-113 102 -156 283q-25 92 -32 213q0 53 -2 88zM328 664q2 -113 14 -195q29 -229 147 -317q55 -41 123 -52 q8 -1 20.5 -1t28.5 1q33 2 41 4q2 0 -9 20.5t-56 94.5q-61 102 -70 119q-10 23 -2 45q12 23 51 33q8 4 33 4q35 0 53 -8q33 -8 58 -33q2 -2 9 -14l23 -37l27 -45l51 -90l9 8q39 43 75 129q53 144 54 391v18q-4 109 -7 142q-18 176 -86 288q-66 113 -186 131q-30 3 -51 3h-19 q-113 -10 -190 -89q-76 -76 -111 -217q-31 -112 -30 -308v-25z" />
<glyph unicode="R" horiz-adv-x="1224" d="M168 72v639v641l2 6q16 33 59 39q8 2 234 2q223 0 248 -4q106 -12 178 -45q106 -47 160 -127q64 -97 63 -228v-16q-2 -137 -70 -229q-23 -33 -49 -52q-53 -45 -145 -73l-17 -4l101 -197q176 -348 180 -361q0 -16 -6 -28q-12 -20 -49 -31q-8 -2 -33 -2h-12q-24 0 -43 6 q-43 14 -60 39q-8 8 -145 283l-139 272h-121h-121v-274q0 -281 -6 -293q-12 -20 -49 -31q-8 -2 -33 -2h-12q-24 0 -43 6q-51 16 -68 51zM383 741h125q170 0 221 13q61 14 98 55q33 31 50 84q16 45 18 104v19q0 104 -43 170q-16 25 -41 41q-37 27 -117 33h-166h-145v-259 v-260z" />
<glyph unicode="S" horiz-adv-x="1169" d="M113 285q0 10 4 18q18 39 78 39h9q38 0 69 -14q36 -16 49 -43q2 -4 6 -14.5t6 -14.5q23 -45 53 -74q20 -23 47 -41q63 -42 146 -42q14 0 28 1q106 6 162 62q59 59 70 184q2 22 1 40q0 27 -3 44q-10 70 -53.5 126t-100.5 77q-27 10 -121 33q-131 33 -174 51 q-94 41 -159.5 112.5t-86.5 155.5q-10 41 -10 86q0 104 41 184q55 113 193 158q70 23 159 29q10 1 33 1h27q45 -1 57 -3q98 -10 182 -54q113 -59 166 -159q16 -31 6 -53q-23 -37 -79 -37h-8q-49 0 -91 26q-18 12 -31 35q-41 86 -139 102q-12 2 -43 2.5t-47 -2.5 q-90 -8 -141 -57q-25 -20 -39 -53q-27 -51 -29 -127v-11q0 -59 21 -108q47 -92 133 -121q2 0 17.5 -4t43 -12t51.5 -14l123 -31q92 -29 164 -88q41 -33 68 -70q63 -80 80 -176q7 -31 7 -71q0 -16 -1 -33q-12 -166 -105 -256q-12 -12 -47 -37q-47 -29 -88 -41 q-53 -23 -149 -29q-27 -2 -51.5 -2t-47.5 2q-223 18 -360 160q-59 61 -92 137q-4 15 -4 27z" />
<glyph unicode="T" horiz-adv-x="1224" d="M59 1366q20 23 58 33h481q471 0 479 -2q66 -16 86 -56q5 -11 5 -21q0 -19 -17 -36q-14 -14 -37 -20l-10 -2l-193 -2h-192v-603q0 -604 -2 -610q-2 -12 -15 -24q-10 -10 -36 -19q-10 -2 -35 -2h-12q-23 0 -44 6q-51 16 -67 51l-4 13l-2 594v594h-174q-182 2 -203 10 q-43 14 -63 43q-11 16 -10 30q0 12 7 23z" />
<glyph unicode="U" horiz-adv-x="1280" d="M166 874.5q0 479.5 6 491.5q20 27 57 33q16 2 31.5 2t30.5 -2q68 -16 86 -58l6 -10v-487q2 -360 2 -502q12 -90 37 -135q41 -88 135 -103q36 -7 71 -6q52 0 101 15q104 37 143 153q18 49 21 117q2 12 2 491.5t6 491.5q12 20 49 31q8 2 35 2h11q22 0 42 -6q51 -16 68 -52 l6 -10v-483q0 -494 -6 -543q-37 -248 -258 -319q-35 -12 -111 -23q-23 -2 -80 -2h-73q-119 14 -199 57q-203 100 -217 363q-2 14 -2 493.5z" />
<glyph unicode="V" horiz-adv-x="1224" d="M111 1339q0 14 6 27q20 27 57 33q16 2 31.5 2t30.5 -2q70 -16 86 -60q2 -2 145 -475l141 -469l146 479q143 477 149 488q12 27 49 35q8 2 35 2h11q22 0 42 -6q51 -16 68 -52q4 -10 4 -20q0 -12 -197 -664q-197 -653 -200 -661q-10 -23 -49 -33q-8 -2 -33 -2h-12 q-24 0 -43 6q-51 16 -68 49q-2 6 -199.5 660.5t-199.5 662.5z" />
<glyph unicode="W" horiz-adv-x="1781" d="M111 1339q0 14 6 27q20 27 57 33q33 4 62 0q68 -16 86 -58q0 -2 14 -55l46 -175l56 -214l113 -440l117 450q117 453 118 455q10 18 31 27q18 10 49 12q35 0 62 -10q45 -12 65 -50q4 -8 230 -882l114 444q119 455 121 459q12 25 51 35q8 2 33 2q29 2 53 -6q70 -25 74 -68 q0 -14 -168 -668q-172 -662 -172 -663q-14 -20 -49 -31q-20 -5 -37 -5q-13 0 -24 3q-27 4 -54 16q-35 18 -41 41q-4 2 -116 447l-115 438l-117 -450q-115 -451 -119 -455q-12 -25 -49 -35q-12 -2 -35 -3h-13q-13 0 -21 1q-66 16 -86 55q-2 6 -171 659.5t-171 663.5z" />
<glyph unicode="X" horiz-adv-x="1224" d="M113 92q8 16 192 324l191 317l-174 291q-176 293 -181 297q-10 27 7.5 48.5t54.5 29.5q47 0 61 -2q51 -12 78 -43q12 -25 133 -221l63 -104l50 -83l16 -28l4 6l14 21l24 40l40 65l55 91q113 188 130.5 213.5t31.5 31.5q20 12 55 12.5t54 -7.5q37 -12 57.5 -36t13.5 -46 q-4 -14 -178 -301l-176 -293q-2 -2 186 -316l94 -155l73 -121q26 -41 26 -43q4 -11 4 -21q0 -13 -7 -24q-13 -20 -46 -31q-10 -2 -35 -2h-11q-23 0 -44 6q-45 14 -60 39q-2 2 -20 33l-59 96l-70 117l-142 237l-81 -137l-150 -248q-57 -96 -68.5 -110.5t-25.5 -22.5 q-16 -10 -53 -10h-12q-24 0 -44 6q-37 12 -57 36q-16 18 -16 37q1 5 2 11z" />
<glyph unicode="Y" horiz-adv-x="1224" d="M113 1352q0 2 2 7t2 7q20 23 57 33q49 0 62 -2q55 -12 77 -45l150 -287l143 -281l150 291q147 287 155 299q14 14 41 21q8 4 35 4q35 0 53 -8q39 -12 60 -37q15 -18 14 -34q0 -7 -2 -13l-197 -387l-194 -381v-242q0 -250 -6 -262q-14 -20 -49 -31q-8 -2 -33 -2h-12 q-24 0 -43 6q-51 16 -68 51l-4 13l-2 245v246l-189 365l-91 181l-77 152l-26 52q-12 25 -8 39z" />
<glyph unicode="Z" horiz-adv-x="1224" d="M112 81q0 11 9 28l348 581l344 570h-287h-127q-168 2 -184 8l-4 2q-61 20 -72 63q-4 23 13.5 41.5t50.5 22.5q8 2 397 2q387 0 414 -8q37 -12 56.5 -36t12.5 -46q-4 -12 -350 -590l-350 -578l315 -2h138q186 -2 202 -8q2 -2 4 -2q41 -12 61 -41q11 -16 10 -30 q0 -12 -7 -23q-14 -20 -47 -31l-12 -2l-410 -2q-424 0 -453 8q-72 23 -72 73z" />
<glyph unicode="[" horiz-adv-x="724" d="M197 528l2 961l2 6q18 33 59 39q8 2 160 2q156 -2 176 -10q43 -12 62 -41q11 -16 11 -30q0 -12 -7 -23q-14 -20 -50 -31q-10 -2 -104 -4h-94v-885v-885h75q82 -2 107 -10q43 -12 62 -41q11 -16 11 -30q0 -12 -7 -23q-14 -20 -50 -31l-10 -2l-145 -2q-160 0 -187 8 q-66 20 -71 64q-2 5 -2 968z" />
<glyph unicode="]" horiz-adv-x="724" d="M59 -408q12 20 50 31q10 2 104 4h94v885v885h-76q-82 2 -106 10q-43 12 -63 41q-11 16 -10 30q0 12 7 23q20 27 58 33q8 2 159 2q133 -2 156 -2q66 -18 86 -57l6 -11v-962q0 -963 -2 -969q-6 -14 -16 -24.5t-37 -18.5l-12 -2h-150q-162 0 -180 6q-43 14 -64 43 q-11 16 -11 31q0 11 7 22z" />
<glyph unicode="`" horiz-adv-x="780" d="M168 1356q-2 6 -2 11q0 16 13 30q17 18 50 24q49 0 62 -2q43 -10 65 -30q6 -4 99 -123l44 -57l36 -46q12 -16 14 -18q4 -8 4 -17q1 -6 1 -11q0 -34 -54 -50q-8 -2 -33 -2h-8q-35 0 -72 16q-16 8 -31.5 25.5t-89.5 112.5q-92 119 -94 120q-4 9 -4 17z" />
<glyph unicode="a" d="M70 451q0 121 8 165q18 127 100 193q68 55 182 72q11 1 32 1h24q39 -1 57 -3q51 -6 92 -23l8 -2l7 6q18 12 38 19q8 2 33 2q29 1 54 -7q53 -20 69 -53l4 -8v-381q0 -385 -6 -397q-14 -20 -47 -31q-10 -2 -35 -2h-8q-37 0 -72 16l-12 9l-18 -9q-6 -2 -34 -8t-42 -8 q-31 -2 -60.5 -2t-58.5 2q-74 12 -133 41q-143 70 -174 246q-8 43 -8 162zM285 432q0 -76 2 -96q2 -53 16 -103q23 -68 59 -83q14 -8 48 -9q55 0 90 29q41 31 53 98q8 33 8 168q0 152 -4 180.5t-20 69.5q-23 45 -62 53q-18 4 -34 4q-10 0 -19 -2q-51 -6 -82 -45 q-47 -55 -53 -168q-2 -20 -2 -96z" />
<glyph unicode="b" d="M111 719q0 649 2 655q4 14 14 23q16 16 47 22q16 2 31.5 2t30.5 -2q68 -16 86 -57l6 -10v-242q0 -242 2 -242q8 2 20 4q47 8 99 9q45 0 92 -9q45 -8 98 -32q143 -70 174 -246q8 -43 8 -162q0 -123 -8 -168q-23 -131 -102 -192q-74 -59 -189 -70q-18 -3 -40 -3 q-30 0 -66 5q-45 6 -92 23l-7 2l-8 -6q-10 -10 -37 -19q-8 -2 -32 -2h-12q-24 0 -44 6q-51 16 -67 51l-4 13zM328 446q0 -154 6 -182q14 -94 61 -115q22 -10 47 -10q11 0 23 2q96 10 127 135q12 49 12 175q0 139 -16 198q-31 82 -78 90q-15 4 -27 4q-8 0 -14 -2 q-49 -2 -78 -28q-39 -29 -55 -101q-6 -33 -8 -166z" />
<glyph unicode="c" horiz-adv-x="780" d="M68 449.5q0 101.5 2 123.5q12 121 59 195q27 37 64 63q55 37 126 48q4 0 11.5 1t9.5 1q4 1 25 1h24q43 -1 57 -3q135 -16 205 -86q58 -58 58 -137q0 -23 -17 -40q-8 -10 -37 -18q-35 -8 -61 -2q-76 14 -94 55q-8 20 -8 35q0 25 -15 43q-8 12 -59 12q-25 2 -49 -10 q-61 -33 -78 -153q-6 -53 -6 -166q2 -113 6 -144q12 -78 49 -114q18 -16 59 -13q31 0 54 13q35 16 39 69q2 18 6 27q12 23 51 35q8 2 33 2q29 2 53 -6q53 -20 70 -54q4 -8 4 -24q0 -96 -78 -150q-80 -53 -217 -53q-53 0 -105 12q-74 20 -125 64q-25 18 -47 49 q-55 78 -67 205q-2 18 -2 119.5z" />
<glyph unicode="d" d="M70 451q0 121 8 165q18 127 100 193q63 53 152 65q43 8 84 8q67 0 133 -20l14 -4v254q0 262 8 274q16 27 58 33q14 2 29.5 2t31.5 -2q63 -16 86 -57l4 -10v-650q0 -649 -2 -655q-2 -12 -14 -24q-8 -10 -37 -19q-10 -2 -35 -2h-8q-37 0 -72 16l-12 9l-18 -9q-6 -2 -34 -8 t-42 -8q-31 -2 -60.5 -2t-58.5 2q-74 12 -133 41q-143 70 -174 246q-8 43 -8 162zM285 432q0 -76 2 -96q2 -53 16 -103q23 -68 59 -83q14 -8 48 -9q55 0 90 29q41 31 53 98q8 33 8 168q0 152 -4 180.5t-20 69.5q-23 45 -62 53q-18 4 -34 4q-10 0 -19 -2q-51 -6 -82 -45 q-47 -55 -53 -168q-2 -20 -2 -96z" />
<glyph unicode="e" d="M70 334v115q-1 23 -1 44q0 63 5 107q12 78 45 135q80 125 258 144q16 2 54 2t56 -2q150 -18 238 -107q94 -100 94 -278q0 -33 -2 -43q-4 -12 -10 -19q-18 -35 -74 -53q-29 -8 -246 -8h-202v-6q0 -39 6 -64q12 -127 84 -154q16 -6 51 -6q43 1 66 9q53 20 73 59 q10 20 31 31q23 10 55 10q29 2 54 -6q37 -12 58 -37t15 -47q-10 -33 -49 -68q-70 -74 -201 -88q-20 -2 -63 -3h-26q-24 0 -38 1q-180 27 -262 135q-55 80 -69 197zM285 510h159h160v8q0 35 -6 64q-6 68 -37 110q-23 39 -65 47q-20 4 -36 4q-11 0 -20 -2q-18 -2 -45 -10 q-98 -39 -108 -205z" />
<glyph unicode="f" horiz-adv-x="514" d="M6 848q12 20 49 31q10 2 76 4h64v157q2 162 4 172q12 76 51 125q49 55 137 74q29 8 57 8q10 2 38 2t38 -2q147 -16 230 -121q49 -61 53 -104q0 -16 -6 -29q-14 -23 -49 -28q-31 -8 -62 -4q-82 14 -98 69q-23 59 -58 76l-10 4l-16 -2q-14 0 -27 -4q-41 -14 -53 -62 q-10 -25 -12 -104v-80v-147h75q80 -2 105 -11q43 -14 62.5 -41.5t2.5 -54.5q-14 -23 -49 -28q-10 -4 -102 -5h-94v-344q0 -352 -6 -364q-14 -20 -48 -31q-10 -2 -34 -2h-12q-23 0 -44 6q-51 16 -67 51l-4 13l-2 336v335h-48q-53 0 -75 9q-43 14 -63 42q-11 15 -10 29 q0 13 7 25z" />
<glyph unicode="g" d="M70 453q0 121 8 165q18 127 100 193q68 55 182 72q18 1 37 1q37 0 76 -5q59 -8 92 -21l8 -4l7 8q14 10 38 17q8 4 33 4q35 0 54 -9q51 -16 69 -51l4 -10v-438q0 -442 -2 -465q-8 -88 -35 -146q-61 -133 -225 -159q-28 -3 -50.5 -3t-39.5 3q-133 12 -223 90 q-55 45 -84 110q-10 29 -2 50q14 23 51 32q8 4 33 4q45 0 78 -16q35 -18 45 -47q18 -37 36 -55q30 -30 66 -31q12 0 25 4q90 23 108 184q2 18 3 50t-1 34q-10 0 -20 -4q-49 -8 -99 -8q-47 0 -94 8q-57 14 -96 33q-143 72 -174 246q-8 45 -8 164zM285 433q0 -75 2 -95 q2 -53 16 -102q20 -66 59 -86q18 -8 48 -9q55 0 90 29q41 35 53 100q8 33 8 168q0 152 -4 180q-4 31 -20 70q-23 45 -62 51q-12 4 -53 4q-51 -6 -82 -45q-47 -59 -53 -168q-2 -22 -2 -97z" />
<glyph unicode="h" d="M111 719q0 649 2 655q4 14 14 23q16 16 47 22q16 2 31.5 2t30.5 -2q68 -16 86 -57l6 -10v-242q0 -242 2 -242q33 8 47 11q16 2 54 2t58 -2q131 -18 213 -97q59 -63 74 -170q2 -10 4 -286q0 -279 -8 -291q-14 -20 -47 -31q-10 -2 -35 -2h-11q-22 0 -42 6q-51 16 -70 51 l-4 13v272q-2 276 -4 289q-10 63 -39 92q-12 12 -47 18q-18 0 -45 -10q-37 -18 -61 -67q-31 -61 -37 -170q-2 -14 -2 -236q0 -213 -6 -225q-14 -20 -50 -31q-8 -2 -32 -2h-12q-24 0 -44 6q-51 16 -67 51l-4 13z" />
<glyph unicode="i" horiz-adv-x="346" d="M37 1296q-2 0 -2 1q0 2 14 12q18 12 55 18q2 2 54 2q53 -2 61 -4q35 -8 53 -20q6 -2 16.5 -10.5t10.5 -10.5q-2 0 -23 10l-28 13l6 -7q18 -12 29 -32q4 -8 4 -21q2 -16 -13 -33l-6 -8l6 2q2 2 13 4q4 2 6 2l12 5l-2 -2q-10 -14 -53 -27h-62h-63q-33 8 -53 20l-29 21 q2 0 23 -8l30 -13l-8 4q-14 10 -29 33q-4 8 -4 23q0 18 13 30l8 9h-8l-7 -2q-8 -4 -10 -7zM63 72v377q0 387 7 399q16 23 57 33q10 2 30.5 1t30.5 -3q63 -12 86 -58l7 -8v-381q0 -303 -1 -345t-8 -52q-14 -20 -47 -31q-10 -2 -35 -2h-11q-22 0 -42 6q-51 16 -69 51z M137 1192l4 -2v2l-4 2v-2zM203 1325q0 -2 4 -2l-2 2h-2z" />
<glyph unicode="j" horiz-adv-x="458" d="M-113 -162q4 25 35 43q20 10 55 10q45 0 80 -18l13 -6q0 12 2 24q2 16 2 484q0 457 4 465q12 31 61 43q47 0 62 -2q63 -16 86 -58l4 -10v-457q0 -463 -2 -481q-14 -195 -84 -246q-39 -25 -90 -26h-8q-57 0 -107 26q-80 41 -102 154q-11 37 -11 55zM49 1298l12 11 q23 14 56 20h53q51 0 61 -4q33 -8 52 -18q29 -14 28 -21q-6 0 -22 10l-31 13q0 -2 8 -6q14 -10 29 -33q4 -8 4 -21q0 -20 -12 -32l-8 -9l8 2q4 0 16 7l14 4l-2 -2q-10 -14 -53 -27q-8 -2 -61.5 -2t-63.5 2q-29 8 -55 20q-10 6 -19.5 12.5t-7.5 8.5q2 0 23 -10l28 -13 q0 2 -6 7q-14 10 -28 32q-4 8 -4 23q-2 16 12 31l6 8l-6 -2l-19 -6zM149 1194q2 -2 5 -2l-2 2h-3zM213 1325h4l-4 2v-2z" />
<glyph unicode="k" d="M111 719q0 649 2 655q4 14 14 23q16 16 47 22q16 2 31.5 2t30.5 -2q68 -16 86 -57l6 -10v-406l2 -405l137 157l69 79q36 42 55 62.5t19 22.5q14 10 35 17q8 2 35 2q29 2 53 -7q53 -20 68 -53q4 -8 4 -20.5t-14.5 -31.5t-94.5 -112q-100 -111 -100 -116q-2 -2 111 -224 q127 -242 127 -251q1 -6 1 -12q0 -34 -55 -50q-8 -2 -32 -2h-13q-24 0 -43 6q-41 14 -59 39q-8 4 -90 172l-86 164l-45 -53q-41 -43 -66 -74l-18 -20v-91q0 -98 -6 -110q-14 -20 -50 -31q-8 -2 -32 -2h-12q-24 0 -44 6q-51 16 -67 51l-4 13z" />
<glyph unicode="l" horiz-adv-x="346" d="M63 719q0 649 3 655q4 14 14 23q16 16 47 22q16 2 31.5 2t29.5 -2q68 -16 86 -57l7 -10v-650q0 -649 -2 -655q-6 -14 -16.5 -24.5t-37.5 -18.5q-8 -2 -32 -2h-13q-24 0 -43 6q-51 16 -67 51l-4 13z" />
<glyph unicode="m" horiz-adv-x="1337" d="M111 449q0 387 6 399q20 23 57 33q7 1 19 1h13q22 -1 30 -3q29 -8 45 -17l12 -6l16 6q20 8 66 17q16 2 52 2t54 -2q100 -12 170 -58l17 -12l6 6q23 18 55 35q51 23 94 29q14 2 51 2t54 -2q121 -12 198 -78q61 -51 80 -127q2 -6 15 -60q2 -14 2 -288q0 -279 -6 -291 q-14 -20 -48 -31q-10 -2 -34 -2h-12q-23 0 -44 6q-51 16 -67 51l-4 13l-2 272q0 285 -9 318q-14 57 -45 73q-10 6 -34 8q-14 0 -23 -4q-37 -6 -66 -45q-35 -51 -47 -137q-6 -43 -6 -281q0 -225 -4 -233q-10 -29 -51 -39q-10 -2 -35 -2h-11q-22 0 -42 6q-51 16 -70 51l-4 13 v272q-2 293 -8 318q-16 57 -45 73q-14 6 -37 8q-14 0 -23 -4q-35 -6 -63 -45q-35 -49 -49 -137q-4 -43 -6 -281v-97v-67q0 -24 -1 -39.5t-1 -23.5v-6q-12 -29 -54 -39q-8 -2 -32 -2h-12q-24 0 -44 6q-51 16 -67 51l-4 13z" />
<glyph unicode="n" d="M111 449q0 387 6 399q20 23 57 33q7 1 19 1h13q22 -1 30 -3q37 -8 53 -21l6 -2q8 6 51 16q32 9 71 9h15q43 0 57 -2q131 -18 213 -97q59 -63 74 -170q2 -10 4 -286q0 -279 -8 -291q-14 -20 -47 -31q-10 -2 -35 -2h-11q-22 0 -42 6q-51 16 -70 51l-4 13v272q-2 276 -4 289 q-10 63 -39 92q-12 12 -47 18q-18 0 -45 -10q-37 -18 -61 -67q-31 -61 -37 -170q-2 -14 -2 -236q0 -213 -6 -225q-14 -20 -50 -31q-8 -2 -32 -2h-12q-24 0 -44 6q-51 16 -67 51l-4 13z" />
<glyph unicode="o" d="M70 334v115q-1 23 -1 44q0 63 5 107q12 78 45 135q80 125 258 144q16 2 54 2t56 -2q178 -23 263 -136q55 -80 69 -194v-117q1 -23 1 -43q0 -61 -5 -104q-12 -78 -45 -138q-78 -127 -260 -145q-18 -3 -45.5 -3t-63.5 3q-178 25 -262 135q-55 80 -69 197zM285 449.5 q0 -76.5 2 -107.5q6 -98 41 -152q20 -37 65 -49q16 -2 31 -1q22 0 41 3q45 8 72 39q51 47 65 152q2 23 2 99.5t-2 107.5q-6 98 -41 151q-23 39 -65 47q-20 4 -36 4q-11 0 -20 -2q-55 -6 -90 -41q-47 -47 -63 -151q-2 -23 -2 -99.5z" />
<glyph unicode="p" d="M111 252q0 578 2 586q2 12 14 20q14 18 47 25q49 0 62 -2q16 -4 45 -17l12 -6l16 6q31 8 78 17q30 2 59 2l60 -2q70 -8 133 -39q145 -74 174 -246q8 -45 8 -164q0 -121 -8 -166q-23 -131 -102 -192q-57 -49 -152 -66q-38 -7 -78 -7q-67 0 -139 19l-14 7v-185 q0 -193 -6 -204q-14 -20 -50 -31q-8 -2 -32 -2q-6 0 -12 -1q-24 0 -44 7q-51 16 -67 51l-4 12zM328 449q0 -154 6 -183q14 -92 61 -116q23 -9 51 -10q9 0 19 1q96 12 127 135q12 49 12 177q0 137 -16 196q-33 84 -78 92q-8 2 -41 2q-49 -6 -78 -28q-39 -33 -55 -101 q-6 -32 -8 -165z" />
<glyph unicode="q" d="M70 453q0 121 8 165q18 127 100 193q68 55 182 72q18 1 37 1q37 0 76 -5q59 -8 92 -21l8 -4l7 8q14 10 38 17q8 4 33 4q35 0 54 -9q51 -16 69 -51l4 -10v-577q0 -580 -2 -586q-2 -12 -14 -25q-8 -10 -37 -18q-10 -2 -35 -2q-6 0 -11 -1q-23 0 -44 7q-51 16 -68 51l-4 12 l-2 170v170q-10 0 -20 -4q-49 -8 -99 -8q-47 0 -94 8q-57 14 -96 33q-143 72 -174 246q-8 45 -8 164zM285 433q0 -75 2 -95q2 -53 16 -102q20 -66 59 -86q18 -8 48 -9q55 0 90 29q41 35 53 100q8 33 8 168q0 152 -4 180q-4 31 -20 70q-23 45 -62 51q-12 4 -53 4 q-51 -6 -82 -45q-47 -59 -53 -168q-2 -22 -2 -97z" />
<glyph unicode="r" horiz-adv-x="724" d="M111 449q0 387 6 399q20 23 57 33q7 1 19 1h13q22 -1 30 -3q29 -8 45 -17l12 -6l12 6q25 8 66 17q16 2 52 2t54 -2q176 -27 209 -160q8 -38 8 -60q0 -28 -16 -43q-25 -23 -68 -24q-33 0 -59 8q-74 27 -74 78q0 43 -12 61q-2 6 -21 0q-33 -8 -53 -34q-43 -47 -57 -146 q-4 -43 -6 -283v-97v-67q0 -24 -1 -39.5t-1 -23.5v-6q-12 -29 -54 -39q-8 -2 -32 -2h-12q-24 0 -44 6q-51 16 -67 51l-4 13z" />
<glyph unicode="s" horiz-adv-x="780" d="M67 228q0 24 19 40q10 10 37 19q33 8 61 2q72 -14 95 -56q6 -14 6 -32q2 -25 10 -39q8 -18 51 -21q13 -2 27 -2q22 0 45 6q47 12 65 62q9 29 9 62q0 14 -2 29q-5 50 -23 73q-14 14 -72 16q-12 0 -32.5 1t-22.5 1q-176 23 -242 133q-31 52 -31 114q0 16 3 34q6 84 57 135 q68 63 192 76q11 1 37 1h28q48 -1 67 -3q55 -8 81 -17q141 -43 160 -151q2 -10 2 -20q0 -25 -16 -42q-10 -10 -37 -18q-33 -8 -61 -2q-82 14 -99 63q-2 4 -2 19q-4 25 -12 26q-10 4 -43 6q-92 0 -119 -41q-10 -16 -16 -36q-2 -12 -2 -41v-39q10 -39 28 -51q10 -8 64 -9 q66 -4 96 -10q147 -29 203 -133q34 -60 34 -127q0 -46 -16 -94q-39 -123 -188 -152q-37 -8 -105 -8h-71q-82 12 -135 39q-43 18 -74 53q-56 58 -56 134z" />
<glyph unicode="t" horiz-adv-x="569" d="M18 801q-6 12 -6 24t6 23q12 20 50 31q4 2 45 4h32v159q0 170 9 183q16 23 57 32q5 1 17 2q6 -1 13 -1q22 -1 31 -3q63 -12 86 -57l5 -8v-156v-151h38q47 -2 68 -11q41 -14 59 -42q10 -16 11 -30q0 -12 -7 -24q-14 -23 -47 -28q-12 -4 -67 -5h-55v-344q0 -352 -7 -364 q-14 -20 -47 -31q-10 -2 -35 -2h-11q-23 0 -44 6q-51 16 -67 51l-5 13l-2 336v335h-16q-33 0 -66 16.5t-45 41.5z" />
<glyph unicode="u" d="M111 555q0 281 6 293q20 23 57 33q7 1 19 1h13q22 -1 30 -3q68 -14 86 -58l6 -8v-274q2 -246 2 -289q14 -70 41 -92q16 -16 45 -19q27 0 47 11q35 16 59 65q33 63 39 172q2 14 2 234q0 215 6 227q14 20 49 31q8 2 35 2q27 1 54 -7q53 -20 67 -53l6 -8v-381 q0 -303 -1 -345t-7 -52q-14 -20 -47 -31q-10 -2 -35 -2h-11q-22 0 -42 6q-12 4 -37 17l-4 2q-10 -6 -49 -17q-34 -9 -73 -8h-15h-56q-139 18 -213 98q-59 57 -77 168q0 43 -2 287z" />
<glyph unicode="v" horiz-adv-x="868" d="M53 819q0 16 6 29q20 23 58 33q7 1 18 1h13q22 -1 30 -3q68 -14 86 -56q2 -4 84 -227l80 -221l84 233l42 114l35 93q11 29 11 31q12 23 49 33q8 2 35 2q29 2 53 -7q53 -20 68 -51q5 -15 5 -23q0 -4 -1 -7q-2 -6 -137 -378t-137 -378q-10 -23 -50 -33q-8 -2 -32 -2h-12 q-24 0 -44 6q-47 16 -67 47q-2 6 -71 196l-137 378q-69 188 -69 190z" />
<glyph unicode="w" horiz-adv-x="1280" d="M53 821q0 14 6 27q20 23 58 33q7 1 18 1h13q22 -1 30 -3q68 -14 86 -56q10 -18 66 -205q66 -197 65 -202l70 211l33 104l27 85q9 28 10 30q14 23 51 33q8 2 35 2q27 2 53 -7q53 -18 65 -49q4 -6 68 -207q14 -47 31.5 -98t25.5 -78l8 -26l68 209q66 205 72 219 q12 23 51 35q8 2 33 2q29 2 53 -7q53 -20 70 -53q4 -8 4 -20q0 -8 -121 -383q-119 -375 -123 -379q-6 -16 -29 -27q-18 -10 -51 -12q-35 0 -59 10q-49 12 -66 49l-8 27l-27 81l-32 99l-21 63q-10 32 -17 56.5t-14.5 42.5l-11.5 27l-2 10l-68 -211q-68 -213 -71 -215 q-6 -16 -29 -27q-18 -10 -49 -12q-35 0 -62 10q-45 12 -65 49q-2 4 -122 379t-122 383z" />
<glyph unicode="x" horiz-adv-x="868" d="M61 106q6 6 127 183l62 88l49 69l14 23l-114 164q-117 170 -117 172q-12 25 4 46t55 30q5 1 17 1h13q22 -1 32 -3q51 -12 78 -45l12 -17q12 -16 28.5 -41.5l32.5 -48.5q14 -23 33 -47.5t27 -36.5l10 -14l80 112q82 117 84 119q16 12 39 19q8 2 35 2q27 2 53 -7 q68 -23 73 -69q0 -14 -8 -27l-14 -20q-14 -23 -44 -66l-56 -80q-115 -162 -115 -166l125 -178q127 -186 129 -188q6 -12 6 -23q0 -12 -7 -22q-13 -20 -48 -31q-8 -2 -33 -2h-12q-24 0 -43 6q-43 12 -64 43q-2 2 -13 19l-33 47l-40 57l-78 113l-10 -17l-36 -50l-44 -62 q-92 -129 -96 -135q-16 -12 -39 -19q-8 -2 -33 -2h-12q-24 0 -43 6q-45 14 -64 43q-10 15 -9 30q-1 12 7 25z" />
<glyph unicode="y" d="M111 557q0 281 6 293q20 23 57 33q49 0 62 -2q68 -16 86 -58l6 -10v-272q2 -248 2 -289q12 -70 41 -94q14 -14 45 -17q25 0 47 9q37 20 59 67q33 63 39 170q2 16 2 236q0 215 6 227q14 23 49 29q8 4 35 4q33 0 54 -8q51 -16 67 -52l6 -10v-438q0 -420 -4 -465 q-8 -88 -35 -146q-59 -133 -223 -159q-30 -3 -52.5 -3t-37.5 3q-135 12 -225 90q-55 47 -82 110q-12 27 -4 50q14 23 51 32q8 4 35 4q43 0 76 -16q35 -18 47 -47q12 -31 34 -55q31 -31 67 -31q20 0 42 10q47 23 72 94q16 41 22 136q0 33 -4 32q-16 -6 -45 -10 q-27 -2 -54.5 -2t-56.5 2q-137 18 -213 96q-59 59 -77 170q0 43 -2 287z" />
<glyph unicode="z" horiz-adv-x="868" d="M59 100q0 2 222 324l219 319h-158q-164 0 -188 9q-43 14 -62.5 42.5t-3.5 53.5q20 23 57 33q8 2 275 2q262 -2 270 -4q66 -14 86 -56q12 -20 0 -43q0 -2 -221 -321l-219 -318l186 -2h84q113 -2 131 -8l2 -2q43 -12 63 -41q11 -16 10 -30q0 -12 -7 -23q-14 -20 -49 -31 l-13 -2h-292q-305 0 -324 6q-41 14 -61 41q-12 16 -13 31q0 10 6 20z" />
<glyph unicode="&#xa1;" d="M223 463q0 2 2 8l2 4q2 2 61 84l115 161q57 79 60 81q16 20 51 26q5 1 17 2q6 0 13 -1q22 -1 31 -3q37 -12 41 -14q33 -16 44 -41q5 -11 5 -21q0 -13 -8 -26q0 -2 -13 -21l-41 -57l-48 -67q-104 -141 -104 -146t102 -147q106 -150 109 -152q6 -13 6 -24q0 -27 -35 -43 q-18 -10 -51 -13q-33 0 -60 8q-35 10 -53 33q-8 8 -123 169t-119 169q-6 10 -6 20q0 6 2 11z" />
<glyph unicode="&#xa8;" horiz-adv-x="780" d="M86 1296q-2 0 -2 1q0 2 14 12q18 12 56 18q2 2 53 2q53 -2 61 -4q35 -8 54 -20q6 -2 16 -10.5t10 -10.5q-2 0 -22 10l-29 13l6 -7q18 -12 29 -32q4 -8 4 -21q2 -16 -12 -33l-7 -8l7 2q2 2 12 4q4 2 6 2l12 5l-2 -2q-10 -14 -53 -27h-61h-64q-33 8 -53 20l-29 21 q2 0 23 -8l30 -13l-8 4q-14 10 -28 33q-4 8 -5 23q0 18 13 30l8 9h-8l-6 -2q-8 -4 -11 -7zM186 1192l4 -2v2l-4 2v-2zM252 1325q0 -2 4 -2l-2 2h-2zM420 1296q6 8 12 13q18 12 57 18q0 2 54 2q51 -2 61 -4q37 -10 51 -20q6 -2 16.5 -10.5t10.5 -10.5q-10 4 -20 10l-31 13 l6 -7q23 -14 29 -32q4 -8 4 -21q2 -18 -13 -33l-6 -8l6 2l19 6l14 5q-2 0 -4 -2q-10 -14 -53 -27h-62h-61q-37 8 -55 20q-4 2 -11.5 7.5t-11.5 9.5l-4 4l21 -8l30 -13q-2 2 -6 4q-20 14 -29 33q-4 8 -4 23q-2 18 13 30l6 9h-6l-7 -2l-12 -7zM522 1192q0 -2 4 -2l-2 2l-2 2 q-1 0 -1 -0.5t1 -1.5zM586 1325q2 -2 4 -2l-2 2h-2z" />
<glyph unicode="&#xaa;" d="M70 451q0 121 8 165q18 127 100 193q68 55 182 72q11 1 32 1h24q39 -1 57 -3q51 -6 92 -23l8 -2l7 6q18 12 38 19q8 2 33 2q29 2 54 -7q53 -20 69 -53l4 -8v-381q0 -385 -6 -397q-14 -20 -47 -31q-10 -2 -35 -2h-8q-37 0 -72 16l-12 9l-18 -9q-6 -2 -34 -8t-42 -8 q-31 -2 -60.5 -2t-58.5 2q-74 12 -133 41q-143 70 -174 246q-8 43 -8 162zM285 432q0 -76 2 -96q2 -53 16 -103q23 -68 59 -83q14 -8 48 -9q55 0 90 29q41 31 53 98q8 33 8 168q0 152 -4 180.5t-20 69.5q-23 45 -62 53q-18 4 -34 4q-10 0 -19 -2q-51 -6 -82 -45 q-47 -55 -53 -168q-2 -20 -2 -96z" />
<glyph unicode="&#xad;" horiz-adv-x="667" d="M28 428q-7 13 -7 25q0 18 16 34.5t47 22.5q8 2 190 2q186 -2 209 -10q41 -12 61 -41q11 -16 10 -30q0 -12 -7 -23q-14 -20 -49 -31l-11 -2h-182q-193 0 -211 6q-49 14 -66 47z" />
<glyph unicode="&#xaf;" horiz-adv-x="780" d="M60 1083q-7 13 -6 25q0 18 16 34.5t47 22.5q8 2 258 2q256 -2 270 -8q2 0 6 -2q41 -12 61 -41q11 -16 10 -30q0 -12 -7 -23q-14 -20 -49 -31l-11 -2h-247q-262 0 -281 6q-50 14 -67 47z" />
<glyph unicode="&#xb2;" horiz-adv-x="946" d="M113 993q-3 9 -3 26q0 30 9 85q14 100 76 164q80 80 223 92q8 2 37.5 2t42.5 -2q90 -10 157 -43q80 -39 123 -107q55 -86 56 -225q0 -166 -132 -387q-45 -72 -204 -307l-105 -150l170 -2q180 -2 201 -10q41 -12 60 -41q11 -16 11 -30q0 -12 -8 -23q-14 -20 -49 -31 l-10 -2h-276q-289 0 -308 6q-51 16 -67 51q-5 11 -6 22q0 14 10 28q4 4 143 210q176 254 191 277q162 248 161 408q0 119 -41 178q-16 27 -49 37q-19 5 -38 5q-35 0 -66 -18q-39 -16 -64 -65q-31 -55 -30 -152q0 -29 -19 -45q-14 -14 -37 -20q-25 -6 -61 -2q-86 16 -98 71z " />
<glyph unicode="&#xb3;" horiz-adv-x="946" d="M115 213q-4 8 -4 17q0 11 6 22q12 27 49 35q8 2 35 2q29 2 53 -6q35 -12 57 -35q6 -8 17 -29q23 -68 73 -102q27 -16 56 -17q41 0 71 17q70 37 86 164q2 12 2 151t-2 156q-6 39 -14 65q-20 63 -57 80q-20 10 -70 10q-43 2 -70 11q-35 10 -55 34.5t-14 47.5l90 176l90 170 h-123q-127 0 -153 8q-41 14 -60.5 43t-3.5 53q16 23 57 33q8 2 230 2h96q129 -2 145 -8l5 -2q37 -10 56 -35t13 -47q0 -8 -94 -185l-92 -178q6 -4 14 -6q100 -35 156 -102q51 -68 65 -150q8 -45 9 -180q0 -154 -5 -188q-14 -121 -88 -195q-70 -66 -190 -84q-25 -4 -51 -4 q-33 0 -68 6q-66 8 -127 39q-141 70 -190 211z" />
<glyph unicode="&#xb4;" horiz-adv-x="780" d="M223 1143q0 12 4 20t123 123q117 119 127 121q10 6 35 14q47 0 61 -2q68 -16 86 -57q4 -10 5 -21q0 -12 -5 -18q-6 -12 -122 -125q-117 -115 -127 -121q-27 -15 -61 -14h-9q-43 4 -68 18q-33 14 -45 41q-4 11 -4 21z" />
<glyph unicode="&#xb8;" horiz-adv-x="780" d="M143 -317q0 12 2 18q8 18 74 127q66 115 76 125q18 18 49 24q16 2 31.5 2.5t30.5 -2.5q68 -16 86 -57q4 -10 4 -20q0 -12 -2 -19q-8 -18 -74 -127q-57 -98 -68.5 -114.5t-27.5 -24.5q-16 -10 -54 -10q-6 0 -12 -1q-24 0 -43 7q-51 16 -68 51q-4 11 -4 21z" />
<glyph unicode="&#xb9;" horiz-adv-x="946" d="M168 887q-2 5 -2 10q0 9 6 18q0 4 117 211q115 205 121 209q18 18 49 25q5 1 17 1h12q22 -1 32 -3q63 -12 86 -58l4 -8v-618q0 -621 -2 -627q-2 -12 -14 -24q-8 -10 -37 -19q-10 -2 -35 -2h-11q-23 0 -44 6q-51 16 -68 51l-4 13l-2 403v406l-10 -19q-14 -27 -35 -35 q-16 -8 -49 -12q-33 0 -59 8q-62 19 -72 64z" />
<glyph unicode="&#xba;" d="M70 334v115q-1 23 -1 44q0 63 5 107q12 78 45 135q80 125 258 144q16 2 54 2t56 -2q178 -23 263 -136q55 -80 69 -194v-117q1 -23 1 -43q0 -61 -5 -104q-12 -78 -45 -138q-78 -127 -260 -145q-18 -3 -45.5 -3t-63.5 3q-178 25 -262 135q-55 80 -69 197zM285 449.5 q0 -76.5 2 -107.5q6 -98 41 -152q20 -37 65 -49q16 -2 31 -1q22 0 41 3q45 8 72 39q51 47 65 152q2 23 2 99.5t-2 107.5q-6 98 -41 151q-23 39 -65 47q-20 4 -36 4q-11 0 -20 -2q-55 -6 -90 -41q-47 -47 -63 -151q-2 -23 -2 -99.5z" />
<glyph unicode="&#xbf;" d="M227 750q-7 13 -6 24q0 24 29 39q14 10 35 14q13 2 26 2q26 0 54 -8q35 -12 55 -33q8 -8 122.5 -168.5t119.5 -168.5q6 -16 4 -31l-7 -12l-16 -23l-44 -62l-56 -79q-115 -160 -121 -166q-14 -14 -39 -21q-8 -2 -33 -2h-12q-24 0 -43 6q-45 14 -64 43q-10 15 -9 30 q0 13 7 26q4 4 105 145l50 69q28 38 40 56l12 19q2 4 -102 147l-49 72l-43 60q-15 20 -15 22z" />
<glyph unicode="&#xc0;" horiz-adv-x="1224" d="M113 80q0 12 196 665q199 655 201 660q14 29 57 35q33 4 62 0q68 -16 86 -56q2 -6 199.5 -660t199.5 -663q0 -14 -6 -26q-14 -20 -49 -31q-8 -2 -33 -2h-12q-24 0 -43 6q-53 16 -68 51q-2 2 -51 168l-51 164h-185h-186l-53 -174q-51 -172 -55 -180q-12 -23 -50 -33 q-8 -2 -32 -2h-12q-24 0 -44 6q-51 16 -67 51q-4 11 -4 21zM283 1855q-2 6 -2 12q0 16 13 29q17 18 50 25q49 0 62 -2q43 -10 65 -31q6 -4 98 -123l44 -56l36 -46q12 -16 15 -18q4 -8 4 -17q1 -6 1 -11q0 -34 -55 -50q-8 -2 -32 -2q-4 0 -8 -1q-35 0 -72 17 q-16 8 -31.5 25.5t-89.5 111.5q-92 119 -94 121q-4 8 -4 16zM473 530h143h144v2l-10 31q-8 31 -28 92l-36 115l-70 236q-143 -474 -143 -476z" />
<glyph unicode="&#xc1;" horiz-adv-x="1224" d="M113 80q0 12 196 665q199 655 201 660q14 29 57 35q33 4 62 0q68 -16 86 -56q2 -6 199.5 -660t199.5 -663q0 -14 -6 -26q-14 -20 -49 -31q-8 -2 -33 -2h-12q-24 0 -43 6q-53 16 -68 51q-2 2 -51 168l-51 164h-185h-186l-53 -174q-51 -172 -55 -180q-12 -23 -50 -33 q-8 -2 -32 -2h-12q-24 0 -44 6q-51 16 -67 51q-4 11 -4 21zM473 530h143h144v2l-10 31q-8 31 -28 92l-36 115l-70 236q-143 -474 -143 -476zM481 1645q0 12 4 20t123 123q117 119 127 121q10 6 35 14q47 0 61 -2q68 -16 87 -57q4 -10 4 -21q0 -12 -4 -18q-6 -12 -123 -125 q-117 -115 -127 -121q-27 -15 -61 -15q-4 0 -9 1q-43 4 -68 18q-33 14 -45 41q-4 11 -4 21z" />
<glyph unicode="&#xc2;" horiz-adv-x="1224" d="M113 80q0 12 196 665q199 655 201 660q14 29 57 35q33 4 62 0q68 -16 86 -56q2 -6 199.5 -660t199.5 -663q0 -14 -6 -26q-14 -20 -49 -31q-8 -2 -33 -2h-12q-24 0 -43 6q-53 16 -68 51q-2 2 -51 168l-51 164h-185h-186l-53 -174q-51 -172 -55 -180q-12 -23 -50 -33 q-8 -2 -32 -2h-12q-24 0 -44 6q-51 16 -67 51q-4 11 -4 21zM264 1645q0 12 4 20t123 123q117 119 127 121q10 6 35 14q47 0 61 -2q37 -10 60 -27q6 -4 125 -118.5t121 -118.5q13 -21 12 -35q0 -38 -53 -53q-10 -2 -35 -2h-33q-29 6 -63 26q-2 0 -12 10l-28 28q-19 19 -34 32 l-66 66l-76 -72q-80 -76 -81 -78q-27 -15 -62 -15q-4 0 -8 1q-43 4 -68 18q-33 14 -45 41q-4 11 -4 21zM473 530h143h144v2l-10 31q-8 31 -28 92l-36 115l-70 236q-143 -474 -143 -476z" />
<glyph unicode="&#xc3;" horiz-adv-x="1224" d="M113 80q0 12 196 665q199 655 201 660q14 29 57 35q33 4 62 0q68 -16 86 -56q2 -6 199.5 -660t199.5 -663q0 -14 -6 -26q-14 -20 -49 -31q-8 -2 -33 -2h-12q-24 0 -43 6q-53 16 -68 51q-2 2 -51 168l-51 164h-185h-186l-53 -174q-51 -172 -55 -180q-12 -23 -50 -33 q-8 -2 -32 -2h-12q-24 0 -44 6q-51 16 -67 51q-4 11 -4 21zM264 1648q0 28 23 85q45 113 164 129q17 2 33 2q80 0 147 -49q37 -27 61 -68q0 -6 4 -6q6 0 19 59q2 12 8 25q10 25 49 33q8 4 35 4q33 0 53 -9q68 -20 74 -67q0 -47 -35 -117q-53 -94 -162 -102q-14 -2 -28 -2 q-78 0 -144 49q-43 35 -59 67l-4 7q-6 0 -19 -60q-2 -6 -5 -14t-3 -10q-10 -27 -49 -33q-8 -4 -33 -4q-37 0 -55 8q-74 22 -74 73zM473 530h143h144v2l-10 31q-8 31 -28 92l-36 115l-70 236q-143 -474 -143 -476z" />
<glyph unicode="&#xc4;" horiz-adv-x="1224" d="M113 80q0 12 196 665q199 655 201 660q14 29 57 35q33 4 62 0q68 -16 86 -56q2 -6 199.5 -660t199.5 -663q0 -14 -6 -26q-14 -20 -49 -31q-8 -2 -33 -2h-12q-24 0 -43 6q-53 16 -68 51q-2 2 -51 168l-51 164h-185h-186l-53 -174q-51 -172 -55 -180q-12 -23 -50 -33 q-8 -2 -32 -2h-12q-24 0 -44 6q-51 16 -67 51q-4 11 -4 21zM297 1671q-2 0 -2 1q0 2 14 11q18 12 56 19q2 2 53 2q53 -2 61 -4q35 -8 53 -21q6 -2 16.5 -10t10.5 -10q-2 0 -22 10l-29 12l6 -6q18 -12 29 -33q4 -8 4 -20q2 -16 -12 -33l-7 -8l7 2q2 2 12 4q4 2 6 2l12 4 l-2 -2q-10 -14 -53 -26h-61h-64q-33 8 -53 20l-29 21q2 0 23 -9l30 -12l-8 4q-14 10 -29 33q-4 8 -4 23q0 18 13 30l8 8h-8l-6 -2q-8 -4 -11 -6zM397 1567l4 -2v2l-4 2v-2zM463 1700q0 -2 4 -2l-2 2h-2zM473 530h143h144v2l-10 31q-8 31 -28 92l-36 115l-70 236 q-143 -474 -143 -476zM631 1671q6 8 12 12q18 12 57 19q0 2 54 2q51 -2 61 -4q37 -10 51 -21q6 -2 16.5 -10t10.5 -10q-10 4 -21 10l-30 12l6 -6q23 -14 29 -33q4 -8 4 -20q2 -18 -13 -33l-6 -8l6 2l19 6l14 4q-2 0 -4 -2q-10 -14 -53 -26h-62h-61q-37 8 -55 20 q-4 2 -11.5 7t-11.5 10l-4 4l20 -9l31 -12q-2 2 -6 4q-20 14 -29 33q-4 8 -4 23q-2 18 13 30l6 8h-6l-7 -2l-12 -6zM733 1567q0 -2 4 -2l-2 2l-2 2q-1 0 -1 -0.5t1 -1.5zM797 1700q2 -2 4 -2l-2 2h-2z" />
<glyph unicode="&#xc5;" horiz-adv-x="1224" d="M113 80q0 12 196 665q199 655 201 660q14 29 57 35q33 4 62 0q68 -16 86 -56q2 -6 199.5 -660t199.5 -663q0 -14 -6 -26q-14 -20 -49 -31q-8 -2 -33 -2h-12q-24 0 -43 6q-53 16 -68 51q-2 2 -51 168l-51 164h-185h-186l-53 -174q-51 -172 -55 -180q-12 -23 -50 -33 q-8 -2 -32 -2h-12q-24 0 -44 6q-51 16 -67 51q-4 11 -4 21zM397 1640q0 51 15 95q31 78 135 94q14 2 30 2t33 -2q82 -6 133 -57q55 -55 56 -152q0 -51 -15 -94q-27 -63 -90 -84q-37 -12 -77 -13q-26 0 -53 6q-69 13 -111 54q-56 55 -56 151zM473 530h143h144v2l-10 31 q-8 31 -28 92l-36 115l-70 236q-143 -474 -143 -476z" />
<glyph unicode="&#xc6;" horiz-adv-x="1894" d="M113 80q0 12 2 16q2 6 401 635l408 641q18 20 51 25q8 2 358 2t377 -8q43 -14 63 -42q11 -15 10 -30q0 -12 -7 -25q-14 -20 -50 -30l-10 -2l-295 -2h-293v-230v-233h222q223 0 249 -9q41 -14 59.5 -41.5t4.5 -54.5q-14 -20 -47 -30l-12 -3l-238 -2h-238v-258v-260h277 h123q162 -2 178 -8q2 -2 4 -2q43 -12 63 -41q11 -16 10 -30q0 -12 -7 -23q-14 -20 -50 -31l-10 -2l-346 -2q-356 0 -385 8q-61 18 -74 62v145v135h-196h-193l-102 -160q-82 -131 -96.5 -151.5t-30.5 -26.5q-16 -10 -53 -10q-31 -2 -56 6q-51 16 -67 51q-4 11 -4 21zM610 492 q0 -2 150 -3h151v238v238l-75 -117l-150 -238z" />
<glyph unicode="&#xc7;" horiz-adv-x="1337" d="M111 711q0 334 116 508q72 104 187 159q80 41 166 54q12 2 77 10q10 1 32 1h25q42 -1 56 -3q176 -23 299 -121q57 -47 98 -105q58 -80 58 -120q0 -18 -19 -35q-20 -20 -65 -25q-68 0 -111 37q-10 10 -20 31q-29 74 -76 117q-31 31 -60 47q-62 38 -140 37q-28 0 -58 -5 q-145 -18 -223 -120q-96 -119 -119 -328q-4 -51 -4 -160q0 -135 10 -198q27 -188 117 -293q33 -39 82 -64q57 -29 137 -35q12 -1 23 0q105 0 196 66q35 31 66 65q33 43 45 82q2 4 6 11l2 6q12 27 49 32q8 4 35 5q35 0 53 -9q51 -16 68 -49q10 -20 2 -41q-20 -59 -68 -121 q-29 -39 -68 -67q-25 -20 -63 -45q-92 -57 -223 -74q-18 -2 -64.5 -2t-68.5 2q-137 18 -238 68q-76 39 -129 90q-70 68 -113 162q-75 164 -75 430zM469 -326q0 12 2 19q8 18 74 127q66 115 76 125q18 18 49 24q16 2 31.5 2t29.5 -2q68 -16 86 -57q4 -10 4 -21q0 -12 -2 -18 q-8 -18 -74 -127q-57 -98 -68 -114.5t-28 -24.5q-16 -10 -53 -10q-6 0 -12 -1q-24 0 -43 7q-51 16 -68 51q-4 10 -4 20z" />
<glyph unicode="&#xc8;" horiz-adv-x="1114" d="M166 715l2 637l2 6q16 33 59 39q8 2 342 2q332 0 359 -8q43 -14 62 -42q11 -15 11 -30q0 -12 -8 -25q-12 -20 -49 -30l-10 -2l-277 -2h-276v-230v-233h203q207 0 233 -9q41 -14 59.5 -41.5t4.5 -54.5q-14 -20 -47 -30l-13 -3l-221 -2h-219v-258v-260h260h115 q152 -2 168 -8l4 -2q43 -12 62 -41q11 -16 11 -30q0 -12 -8 -23q-12 -20 -49 -31l-10 -2l-328 -2q-340 0 -368 8q-66 20 -72 64q-2 6 -2 643zM256 1855q-2 6 -2 12q0 16 13 29q17 18 50 25q49 0 62 -2q43 -10 65 -31q6 -4 99 -123l44 -56l36 -46q12 -16 14 -18q4 -8 4 -17 q1 -6 1 -11q0 -34 -54 -50q-8 -2 -33 -2q-4 0 -8 -1q-35 0 -72 17q-16 8 -31.5 25.5t-89.5 111.5q-92 119 -94 121q-4 8 -4 16z" />
<glyph unicode="&#xc9;" horiz-adv-x="1114" d="M166 715l2 637l2 6q16 33 59 39q8 2 342 2q332 0 359 -8q43 -14 62 -42q11 -15 11 -30q0 -12 -8 -25q-12 -20 -49 -30l-10 -2l-277 -2h-276v-230v-233h203q207 0 233 -9q41 -14 59.5 -41.5t4.5 -54.5q-14 -20 -47 -30l-13 -3l-221 -2h-219v-258v-260h260h115 q152 -2 168 -8l4 -2q43 -12 62 -41q11 -16 11 -30q0 -12 -8 -23q-12 -20 -49 -31l-10 -2l-328 -2q-340 0 -368 8q-66 20 -72 64q-2 6 -2 643zM455 1645q0 12 4 20t123 123q117 119 127 121q10 6 34 14q47 0 62 -2q68 -16 86 -57q4 -10 4 -21q0 -12 -4 -18q-6 -12 -123 -125 q-117 -115 -127 -121q-27 -15 -61 -15q-4 0 -9 1q-43 4 -67 18q-33 14 -45 41q-4 11 -4 21z" />
<glyph unicode="&#xca;" horiz-adv-x="1114" d="M166 715l2 637l2 6q16 33 59 39q8 2 342 2q332 0 359 -8q43 -14 62 -42q11 -15 11 -30q0 -12 -8 -25q-12 -20 -49 -30l-10 -2l-277 -2h-276v-230v-233h203q207 0 233 -9q41 -14 59.5 -41.5t4.5 -54.5q-14 -20 -47 -30l-13 -3l-221 -2h-219v-258v-260h260h115 q152 -2 168 -8l4 -2q43 -12 62 -41q11 -16 11 -30q0 -12 -8 -23q-12 -20 -49 -31l-10 -2l-328 -2q-340 0 -368 8q-66 20 -72 64q-2 6 -2 643zM238 1645q0 12 4 20t123 123q117 119 127 121q10 6 34 14q47 0 62 -2q37 -10 59 -27q6 -4 125 -118.5t121 -118.5q13 -21 13 -35 q0 -38 -54 -53q-10 -2 -35 -2h-33q-29 6 -63 26q-2 0 -11 10l-29 28q-19 19 -34 32l-65 66l-76 -72q-80 -76 -82 -78q-27 -15 -61 -15q-4 0 -9 1q-43 4 -67 18q-33 14 -45 41q-4 11 -4 21z" />
<glyph unicode="&#xcb;" horiz-adv-x="1114" d="M166 715l2 637l2 6q16 33 59 39q8 2 342 2q332 0 359 -8q43 -14 62 -42q11 -15 11 -30q0 -12 -8 -25q-12 -20 -49 -30l-10 -2l-277 -2h-276v-230v-233h203q207 0 233 -9q41 -14 59.5 -41.5t4.5 -54.5q-14 -20 -47 -30l-13 -3l-221 -2h-219v-258v-260h260h115 q152 -2 168 -8l4 -2q43 -12 62 -41q11 -16 11 -30q0 -12 -8 -23q-12 -20 -49 -31l-10 -2l-328 -2q-340 0 -368 8q-66 20 -72 64q-2 6 -2 643zM270 1671q-2 0 -1 1q0 2 14 11q18 12 55 19q2 2 53 2q53 -2 62 -4q35 -8 53 -21q6 -2 16 -10t10 -10q-2 0 -22 10l-29 12l6 -6 q18 -12 29 -33q4 -8 4 -20q2 -16 -12 -33l-6 -8l6 2q2 2 12 4q4 2 6 2l13 4l-2 -2q-10 -14 -54 -26h-61h-64q-33 8 -53 20l-29 21q2 0 23 -9l31 -12l-8 4q-14 10 -29 33q-4 8 -4 23q0 18 12 30l8 8h-8l-6 -2q-8 -4 -10 -6zM371 1567l4 -2v2l-4 2v-2zM436 1700q0 -2 4 -2 l-2 2h-2zM604 1671q6 8 12 12q18 12 58 19q0 2 53 2q51 -2 61 -4q37 -10 52 -21q6 -2 16 -10t10 -10q-10 4 -20 10l-31 12l6 -6q23 -14 29 -33q4 -8 4 -20q2 -18 -12 -33l-6 -8l6 2l18 6l14 4q-2 0 -4 -2q-10 -14 -53 -26h-61h-62q-37 8 -55 20q-4 2 -11 7t-12 10l-4 4 l21 -9l31 -12q-2 2 -7 4q-20 14 -28 33q-4 8 -4 23q-2 18 12 30l6 8h-6l-6 -2l-13 -6zM707 1567q0 -2 4 -2l-2 2l-2 2q-1 0 -1 -0.5t1 -1.5zM770 1700q2 -2 4 -2l-2 2h-2z" />
<glyph unicode="&#xcc;" horiz-adv-x="401" d="M-162 1855q-2 6 -1 12q0 16 12 29q17 18 51 25q49 0 61 -2q43 -10 66 -31q6 -4 98 -123l44 -56l36 -46q12 -16 14 -18q4 -8 4 -17q1 -6 2 -11q0 -34 -55 -50q-8 -2 -33 -2q-4 0 -8 -1q-35 0 -72 17q-16 8 -31.5 25.5t-88.5 111.5q-92 119 -95 121q-4 8 -4 16zM90 707 q0 639 2 647q2 12 14 20q14 18 48 25q49 0 61 -2q68 -16 86 -58l6 -10v-637q0 -639 -2 -645q-6 -14 -16 -24.5t-37 -18.5q-8 -2 -33 -2h-12q-24 0 -43 6q-51 16 -68 51l-4 13z" />
<glyph unicode="&#xcd;" horiz-adv-x="401" d="M37 1645q0 12 4 20t123 123q117 119 127 121q10 6 35 14q47 0 61 -2q68 -16 86 -57q4 -10 4 -21q0 -12 -4 -18q-6 -12 -123 -125q-117 -115 -127 -121q-27 -15 -61 -15q-4 0 -8 1q-43 4 -68 18q-33 14 -45 41q-4 11 -4 21zM90 707q0 639 2 647q2 12 14 20q14 18 48 25 q49 0 61 -2q68 -16 86 -58l6 -10v-637q0 -639 -2 -645q-6 -14 -16 -24.5t-37 -18.5q-8 -2 -33 -2h-12q-24 0 -43 6q-51 16 -68 51l-4 13z" />
<glyph unicode="&#xce;" horiz-adv-x="401" d="M-180 1645q0 12 4 20t123 123q117 119 127 121q10 6 35 14q47 0 61 -2q37 -10 59 -27q6 -4 125 -118.5t121 -118.5q13 -21 13 -35q0 -38 -54 -53q-10 -2 -35 -2h-32q-29 6 -64 26q-2 0 -11 10l-29 28q-19 19 -34 32l-65 66l-76 -72q-80 -76 -82 -78q-27 -15 -61 -15 q-4 0 -8 1q-43 4 -68 18q-33 14 -45 41q-4 11 -4 21zM90 707q0 639 2 647q2 12 14 20q14 18 48 25q49 0 61 -2q68 -16 86 -58l6 -10v-637q0 -639 -2 -645q-6 -14 -16 -24.5t-37 -18.5q-8 -2 -33 -2h-12q-24 0 -43 6q-51 16 -68 51l-4 13z" />
<glyph unicode="&#xcf;" horiz-adv-x="401" d="M-147 1671q-2 0 -2 1q0 2 14 11q18 12 55 19q2 2 53 2q53 -2 62 -4q35 -8 53 -21q6 -2 16.5 -10t10.5 -10q-2 0 -23 10l-29 12l7 -6q18 -12 28 -33q4 -8 4 -20q2 -16 -12 -33l-6 -8l6 2q2 2 12 4q4 2 7 2l12 4l-2 -2q-10 -14 -53 -26h-62h-63q-33 8 -54 20l-28 21 q2 0 22 -9l31 -12l-8 4q-14 10 -29 33q-4 8 -4 23q0 18 12 30l8 8h-8l-6 -2q-8 -4 -10 -6zM-47 1567l4 -2v2l-4 2v-2zM18 1700q0 -2 5 -2l-3 2h-2zM90 707q0 639 2 647q2 12 14 20q14 18 48 25q49 0 61 -2q68 -16 86 -58l6 -10v-637q0 -639 -2 -645q-6 -14 -16 -24.5 t-37 -18.5q-8 -2 -33 -2h-12q-24 0 -43 6q-51 16 -68 51l-4 13zM186 1671q6 8 13 12q18 12 57 19q0 2 53 2q51 -2 62 -4q37 -10 51 -21q6 -2 16.5 -10t10.5 -10q-10 4 -21 10l-31 12l6 -6q23 -14 29 -33q4 -8 4 -20q2 -18 -12 -33l-6 -8l6 2l18 6l15 4q-2 0 -4 -2 q-10 -14 -54 -26h-61h-62q-37 8 -55 20q-4 2 -11 7t-11 10l-4 4l20 -9l31 -12q-2 2 -6 4q-20 14 -29 33q-4 8 -4 23q-2 18 12 30l6 8h-6l-6 -2l-12 -6zM289 1567q0 -2 4 -2l-2 2l-2 2q-1 0 -1 -0.5t1 -1.5zM352 1700q2 -2 4 -2l-2 2h-2z" />
<glyph unicode="&#xd1;" horiz-adv-x="1280" d="M166 707q0 639 2 647q2 12 14 20q14 18 47 25q49 0 62 -2q53 -14 78 -43q0 -2 34 -54l103 -153l129 -195l260 -397v397v129v100q0 40 1 71.5t1 50.5v30v19v4q12 29 53 39q8 4 35 4q35 0 53 -8q51 -16 68 -52l6 -10v-637q0 -639 -2 -645q-6 -14 -16.5 -24.5t-36.5 -18.5 q-8 -2 -33 -2h-12q-24 0 -43 6q-51 16 -68 51l-4 13l-2 73v74l-256 387l-254 389l-2 -473v-153v-119q0 -47 -1 -85t-1 -60v-35v-21v-6q-12 -29 -53 -39q-8 -2 -33 -2h-12q-24 0 -43 6q-51 16 -68 51l-4 13zM272 1648q0 28 23 85q45 113 164 129q17 2 34 2q80 0 146 -49 q37 -27 61 -68q0 -6 5 -6q6 0 18 59q2 12 8 25q10 25 49 33q8 4 35 4q33 0 53 -9q68 -20 74 -67q0 -47 -35 -117q-53 -94 -162 -102q-14 -2 -28 -2q-78 0 -144 49q-43 35 -59 67l-4 7q-6 0 -18 -60q-2 -6 -5.5 -14t-3.5 -10q-10 -27 -49 -33q-8 -4 -33 -4q-37 0 -55 8 q-74 22 -74 73z" />
<glyph unicode="&#xd2;" horiz-adv-x="1337" d="M111 682v15q0 307 82 479q39 76 88 129q45 37 69 53q49 35 111 55q78 25 147 29q6 4 49 0q49 0 66 -2q188 -25 311 -135q113 -106 156 -283q25 -92 33 -213q0 -53 2 -88v-15q0 -307 -82 -479q-39 -76 -88 -129q-27 -25 -70 -55q-53 -33 -111 -53q-51 -16 -122 -29 q-33 -2 -66 -2t-65 2q-195 25 -320 137q-113 102 -156 283q-25 92 -32 213q0 53 -2 88zM307 1858q-2 6 -1 11q0 16 12 29q17 18 51 25q49 0 61 -2q43 -10 66 -31q6 -4 98 -123l44 -56l36 -46q12 -16 14 -18q4 -8 4 -17q1 -6 2 -11q0 -34 -55 -50q-8 -2 -33 -2h-8 q-35 0 -72 16q-16 8 -31.5 25.5t-88.5 111.5q-92 119 -95 121q-4 9 -4 17zM330 575q12 -176 57 -278q66 -156 191 -188q27 -8 71 -9q78 0 137 31q111 53 168 199q53 144 54 391v18q-4 109 -7 142q-18 176 -86 288q-66 113 -186 131q-30 3 -51 3h-19q-147 -12 -229 -138 q-82 -123 -96 -327q-7 -77 -8 -157q1 -53 4 -106z" />
<glyph unicode="&#xd3;" horiz-adv-x="1337" d="M111 682v15q0 307 82 479q39 76 88 129q45 37 69 53q49 35 111 55q78 25 147 29q6 4 49 0q49 0 66 -2q188 -25 311 -135q113 -106 156 -283q25 -92 33 -213q0 -53 2 -88v-15q0 -307 -82 -479q-39 -76 -88 -129q-27 -25 -70 -55q-53 -33 -111 -53q-51 -16 -122 -29 q-33 -2 -66 -2t-65 2q-195 25 -320 137q-113 102 -156 283q-25 92 -32 213q0 53 -2 88zM330 575q12 -176 57 -278q66 -156 191 -188q27 -8 71 -9q78 0 137 31q111 53 168 199q53 144 54 391v18q-4 109 -7 142q-18 176 -86 288q-66 113 -186 131q-30 3 -51 3h-19 q-147 -12 -229 -138q-82 -123 -96 -327q-7 -77 -8 -157q1 -53 4 -106zM506 1647q0 12 4 20t123 123q117 119 127 121q10 6 35 14q47 0 61 -2q68 -16 86 -57q4 -10 4 -21q0 -12 -4 -18q-6 -12 -123 -125q-117 -115 -127 -121q-27 -15 -61 -15q-4 0 -8 1q-43 4 -68 18 q-33 14 -45 41q-4 11 -4 21z" />
<glyph unicode="&#xd4;" horiz-adv-x="1337" d="M111 682v15q0 307 82 479q39 76 88 129q45 37 69 53q49 35 111 55q78 25 147 29q6 4 49 0q49 0 66 -2q188 -25 311 -135q113 -106 156 -283q25 -92 33 -213q0 -53 2 -88v-15q0 -307 -82 -479q-39 -76 -88 -129q-27 -25 -70 -55q-53 -33 -111 -53q-51 -16 -122 -29 q-33 -2 -66 -2t-65 2q-195 25 -320 137q-113 102 -156 283q-25 92 -32 213q0 53 -2 88zM289 1647q0 12 4 20t123 123q117 119 127 121q10 6 35 14q47 0 61 -2q37 -10 59 -27q6 -4 125 -118.5t121 -118.5q13 -21 13 -35q0 -38 -54 -53q-10 -2 -35 -2h-32q-29 6 -64 26 q-2 0 -11 10l-29 28q-19 19 -34 32l-65 66l-76 -72q-80 -76 -82 -78q-27 -15 -61 -15q-4 0 -8 1q-43 4 -68 18q-33 14 -45 41q-4 11 -4 21zM330 575q12 -176 57 -278q66 -156 191 -188q27 -8 71 -9q78 0 137 31q111 53 168 199q53 144 54 391v18q-4 109 -7 142 q-18 176 -86 288q-66 113 -186 131q-30 3 -51 3h-19q-147 -12 -229 -138q-82 -123 -96 -327q-7 -77 -8 -157q1 -53 4 -106z" />
<glyph unicode="&#xd5;" horiz-adv-x="1337" d="M111 682v15q0 307 82 479q39 76 88 129q45 37 69 53q49 35 111 55q78 25 147 29q6 4 49 0q49 0 66 -2q188 -25 311 -135q113 -106 156 -283q25 -92 33 -213q0 -53 2 -88v-15q0 -307 -82 -479q-39 -76 -88 -129q-27 -25 -70 -55q-53 -33 -111 -53q-51 -16 -122 -29 q-33 -2 -66 -2t-65 2q-195 25 -320 137q-113 102 -156 283q-25 92 -32 213q0 53 -2 88zM288 1650q0 28 23 85q45 113 164 129q17 2 34 2q80 0 146 -49q37 -27 62 -68q0 -6 4 -6q6 0 18 59q2 12 9 25q10 25 49 33q8 4 34 4q33 0 54 -9q68 -20 73 -67q0 -47 -34 -117 q-53 -94 -162 -102q-14 -2 -28 -2q-78 0 -144 49q-43 35 -60 67l-4 7q-6 0 -18 -60q-2 -6 -5 -14t-3 -10q-10 -27 -49 -33q-8 -4 -33 -4q-37 0 -56 8q-74 22 -74 73zM330 575q12 -176 57 -278q66 -156 191 -188q27 -8 71 -9q78 0 137 31q111 53 168 199q53 144 54 391v18 q-4 109 -7 142q-18 176 -86 288q-66 113 -186 131q-30 3 -51 3h-19q-147 -12 -229 -138q-82 -123 -96 -327q-7 -77 -8 -157q1 -53 4 -106z" />
<glyph unicode="&#xd6;" horiz-adv-x="1337" d="M111 682v15q0 307 82 479q39 76 88 129q45 37 69 53q49 35 111 55q78 25 147 29q6 4 49 0q49 0 66 -2q188 -25 311 -135q113 -106 156 -283q25 -92 33 -213q0 -53 2 -88v-15q0 -307 -82 -479q-39 -76 -88 -129q-27 -25 -70 -55q-53 -33 -111 -53q-51 -16 -122 -29 q-33 -2 -66 -2t-65 2q-195 25 -320 137q-113 102 -156 283q-25 92 -32 213q0 53 -2 88zM322 1673q-2 0 -2 1q0 2 14 12q18 12 55 18q2 2 53 2q53 -2 62 -4q35 -8 53 -21q6 -2 16.5 -10t10.5 -10q-2 0 -23 10l-29 12l7 -6q18 -12 28 -32q4 -8 4 -21q2 -16 -12 -33l-6 -8l6 2 q2 2 12 4q4 2 7 2l12 4l-2 -2q-10 -14 -53 -26h-62h-63q-33 8 -54 20l-28 21q2 0 22 -9l31 -12l-8 4q-14 10 -29 33q-4 8 -4 23q0 18 12 30l8 9h-8l-6 -3q-8 -4 -10 -6zM330 575q12 -176 57 -278q66 -156 191 -188q27 -8 71 -9q78 0 137 31q111 53 168 199q53 144 54 391v18 q-4 109 -7 142q-18 176 -86 288q-66 113 -186 131q-30 3 -51 3h-19q-147 -12 -229 -138q-82 -123 -96 -327q-7 -77 -8 -157q1 -53 4 -106zM422 1569l4 -2v2l-4 2v-2zM487 1702q0 -2 5 -2l-3 2h-2zM655 1673q6 8 13 13q18 12 57 18q0 2 53 2q51 -2 62 -4q37 -10 51 -21 q6 -2 16.5 -10t10.5 -10q-10 4 -21 10l-31 12l6 -6q23 -14 29 -32q4 -8 4 -21q2 -18 -12 -33l-6 -8l6 2l18 6l15 4q-2 0 -4 -2q-10 -14 -54 -26h-61h-62q-37 8 -55 20q-4 2 -11 7t-11 10l-4 4l20 -9l31 -12q-2 2 -6 4q-20 14 -29 33q-4 8 -4 23q-2 18 12 30l6 9h-6l-6 -3 l-12 -6zM758 1569q0 -2 4 -2l-2 2l-2 2q-1 0 -1 -0.5t1 -1.5zM821 1702q2 -2 4 -2l-2 2h-2z" />
<glyph unicode="&#xd8;" horiz-adv-x="1337" d="M111 682v15q0 307 82 479q39 76 88 129q45 37 69 53q49 35 111 55q57 18 123 27q32 4 65 4t68 -4q63 -6 129 -29l28 -8q4 12 11 27q20 41 26 45q18 18 50 24q5 1 16 2q6 0 13 -1q22 -1 32 -3q63 -12 86 -55q6 -16 4 -31q0 -2 -4 -10t-11 -25.5t-14 -29.5l-28 -62l6 -8 q143 -166 162 -467q0 -53 2 -88v-15q0 -307 -82 -479q-39 -76 -88 -129q-27 -25 -70 -55q-53 -33 -111 -53q-51 -16 -122 -29q-33 -2 -66 -2l-65 2q-61 8 -132 29l-28 10q-4 -12 -10 -27l-17 -32q-8 -25 -49 -35q-10 -2 -35 -2q-6 0 -11 -1q-22 0 -42 7q-37 10 -57.5 33.5 t-16.5 46.5q0 2 4 11t11.5 27.5t13.5 30.5l29 60l-7 6q-143 168 -161 469q0 53 -2 88zM328 664q2 -150 20 -240q2 -16 8 -40t11.5 -40t7.5 -18l219 473l108 232l66 145q25 55 35 75l8 21q-2 4 -51 22q-31 6 -33 6q-27 3 -48 3h-20q-113 -10 -190 -89q-76 -76 -111 -217 q-31 -112 -30 -308v-25zM575 109q27 -8 74 -8.5t74 8.5q119 29 182 129q82 123 96 325q7 79 8 158q0 53 -3 106q-8 143 -39 230l-6 18q0 2 -29 -59l-82 -177l-109 -235q-217 -469 -217 -475q0 -7 51 -20z" />
<glyph unicode="&#xd9;" horiz-adv-x="1280" d="M-53 1855q-2 6 -2 12q0 16 13 29q17 18 50 25q49 0 62 -2q43 -10 65 -31q6 -4 98 -123l45 -56l35 -46q12 -16 15 -18q4 -8 4 -17q1 -6 1 -11q0 -34 -54 -50q-8 -2 -33 -2q-4 0 -8 -1q-35 0 -72 17q-16 8 -31.5 25.5t-89.5 111.5q-92 119 -94 121q-4 8 -4 16zM166 874.5 q0 479.5 6 491.5q20 27 57 33q16 2 31.5 2t30.5 -2q68 -16 86 -58l6 -10v-487q2 -360 2 -502q12 -90 37 -135q41 -88 135 -103q36 -7 71 -6q52 0 101 15q104 37 143 153q18 49 21 117q2 12 2 491.5t6 491.5q12 20 49 31q8 2 35 2h11q22 0 42 -6q51 -16 68 -52l6 -10v-483 q0 -494 -6 -543q-37 -248 -258 -319q-35 -12 -111 -23q-23 -2 -80 -2h-73q-119 14 -199 57q-203 100 -217 363q-2 14 -2 493.5z" />
<glyph unicode="&#xda;" horiz-adv-x="1280" d="M145 1645q0 12 4.5 20t122.5 123q117 119 127 121q10 6 35 14q47 0 62 -2q68 -16 86 -57q4 -10 4 -21q0 -12 -4 -18q-6 -12 -123 -125q-117 -115 -127 -121q-27 -15 -61 -15q-4 0 -9 1q-43 4 -67 18q-33 14 -45 41q-5 11 -5 21zM166 874.5q0 479.5 6 491.5q20 27 57 33 q16 2 31.5 2t30.5 -2q68 -16 86 -58l6 -10v-487q2 -360 2 -502q12 -90 37 -135q41 -88 135 -103q36 -7 71 -6q52 0 101 15q104 37 143 153q18 49 21 117q2 12 2 491.5t6 491.5q12 20 49 31q8 2 35 2h11q22 0 42 -6q51 -16 68 -52l6 -10v-483q0 -494 -6 -543 q-37 -248 -258 -319q-35 -12 -111 -23q-23 -2 -80 -2h-73q-119 14 -199 57q-203 100 -217 363q-2 14 -2 493.5z" />
<glyph unicode="&#xdb;" horiz-adv-x="1280" d="M-74 1645q0 12 4 20t123 123q117 119 127 121q10 6 35 14q47 0 61 -2q37 -10 60 -27q6 -4 125 -118.5t121 -118.5q13 -21 12 -35q0 -38 -53 -53q-10 -2 -35 -2h-33q-29 6 -63 26q-2 0 -12 10l-28 28q-19 19 -34 32l-66 66l-75 -72q-80 -76 -82 -78q-27 -15 -61 -15 q-4 0 -9 1q-43 4 -68 18q-33 14 -45 41q-4 11 -4 21zM166 874.5q0 479.5 6 491.5q20 27 57 33q16 2 31.5 2t30.5 -2q68 -16 86 -58l6 -10v-487q2 -360 2 -502q12 -90 37 -135q41 -88 135 -103q36 -7 71 -6q52 0 101 15q104 37 143 153q18 49 21 117q2 12 2 491.5t6 491.5 q12 20 49 31q8 2 35 2h11q22 0 42 -6q51 -16 68 -52l6 -10v-483q0 -494 -6 -543q-37 -248 -258 -319q-35 -12 -111 -23q-23 -2 -80 -2h-73q-119 14 -199 57q-203 100 -217 363q-2 14 -2 493.5z" />
<glyph unicode="&#xdc;" horiz-adv-x="1280" d="M-41 1671q-2 0 -1 1q0 2 13 11q18 12 56 19q2 2 53 2q53 -2 61 -4q35 -8 54 -21q6 -2 16 -10t10 -10q-2 0 -22 10l-29 12l6 -6q18 -12 29 -33q4 -8 4 -20q2 -16 -12 -33l-7 -8l7 2q2 2 12 4q4 2 6 2l12 4l-2 -2q-10 -14 -53 -26h-61h-64q-33 8 -53 20l-29 21q2 0 23 -9 l30 -12l-8 4q-14 10 -28 33q-4 8 -5 23q0 18 13 30l8 8h-8l-6 -2q-8 -4 -11 -6zM59 1567l4 -2v2l-4 2v-2zM125 1700q0 -2 4 -2l-2 2h-2zM166 874.5q0 479.5 6 491.5q20 27 57 33q33 4 62 0q68 -16 86 -58l6 -10v-487q2 -360 2 -502q12 -90 37 -135q41 -88 135 -103 q36 -7 71 -6q52 0 101 15q104 37 143 153q18 49 21 117q2 12 2 491.5t6 491.5q12 20 49 31q8 2 35 2q29 2 53 -6q51 -16 68 -52l6 -10v-483q0 -494 -6 -543q-37 -248 -258 -319q-35 -12 -111 -23q-23 -2 -80 -2h-73q-119 14 -199 57q-203 100 -217 363q-2 14 -2 493.5z M293 1671q6 8 12 12q18 12 57 19q0 2 54 2q51 -2 61 -4q37 -10 51 -21q6 -2 16.5 -10t10.5 -10q-10 4 -20 10l-31 12l6 -6q23 -14 29 -33q4 -8 4 -20q2 -18 -13 -33l-6 -8l6 2l19 6l14 4q-2 0 -4 -2q-10 -14 -53 -26h-62h-61q-37 8 -55 20q-4 2 -11.5 7t-11.5 10l-4 4l21 -9 l30 -12q-2 2 -6 4q-20 14 -29 33q-4 8 -4 23q-2 18 13 30l6 8h-6l-7 -2l-12 -6zM395 1567q0 -2 4 -2l-2 2l-2 2q-1 0 -1 -0.5t1 -1.5zM459 1700q2 -2 4 -2l-2 2h-2z" />
<glyph unicode="&#xdd;" horiz-adv-x="1224" d="M113 1352q0 2 2 7t2 7q20 23 57 33q49 0 62 -2q55 -12 77 -45l150 -287l143 -281l150 291q147 287 155 299q14 14 41 21q8 4 35 4q35 0 53 -8q39 -12 60 -37q15 -18 14 -34q0 -7 -2 -13l-197 -387l-194 -381v-242q0 -250 -6 -262q-14 -20 -49 -31q-8 -2 -33 -2h-12 q-24 0 -43 6q-51 16 -68 51l-4 13l-2 245v246l-189 365l-91 181l-77 152l-26 52q-12 25 -8 39zM465 1645q0 12 4 20t123 123q117 119 127 121q10 6 35 14q47 0 61 -2q68 -16 86 -57q4 -10 4 -21q0 -12 -4 -18q-6 -12 -123 -125q-117 -115 -127 -121q-27 -15 -61 -15 q-4 0 -8 1q-43 4 -68 18q-33 14 -45 41q-4 11 -4 21z" />
<glyph unicode="&#xdf;" d="M111 592q0 541 6 579q10 90 55 148q27 31 49 47q57 41 152 53q22 2 45 2t47 -2q160 -16 237 -119q49 -63 62 -167q2 -18 2 -76t-2 -80q-12 -106 -43 -154l-6 -10l4 -4q20 -20 37 -43q41 -63 55 -160q10 -59 10 -168q0 -164 -41 -260q-37 -78 -98 -123q-78 -47 -162 -53 q-18 -3 -49 -3t-74 3q-39 6 -84 16q-6 2 -14 -4q-27 -15 -61 -14h-9q-43 4 -67 18q-33 14 -45 41l-4 13zM330 190l2 -8q6 -18 14 -26q16 -12 66 -15q18 -2 31 -1q20 0 30 3q16 2 43 19q63 45 80 168q8 43 8 106v29q0 112 -14 184q-20 68 -37 88q-6 6 -16 8q-10 0 -23 7 q-59 18 -74 63q-4 20 11.5 37.5t46.5 26.5q10 2 14 6q25 29 35 112q2 23 2 81.5t-2 78.5q-12 76 -41 107q-12 12 -25 14q-14 4 -26 4q-9 0 -17 -2q-90 -12 -108 -143v-484v-463z" />
<glyph unicode="&#xe0;" d="M70 451q0 121 8 165q18 127 100 193q68 55 182 72q16 2 55.5 1t57.5 -3q51 -6 92 -23l8 -2l7 6q18 12 38 19q8 2 33 2q29 2 54 -7q53 -20 69 -53l4 -8v-381q0 -385 -6 -397q-14 -20 -47 -31q-10 -2 -35 -2h-8q-37 0 -72 16l-12 9l-18 -9q-6 -2 -34 -8t-42 -8 q-31 -2 -60.5 -2t-58.5 2q-74 12 -133 41q-143 70 -174 246q-8 43 -8 162zM78 1296q-2 6 -2 12q0 16 13 29q17 18 50 25q49 0 62 -2q43 -10 65 -31q6 -4 99 -123l44 -56l35 -46q12 -16 15 -19q4 -8 4 -16q1 -6 1 -11q0 -34 -54 -50q-8 -2 -33 -2q-4 0 -8 -1q-35 0 -72 17 q-16 8 -31.5 25.5t-89.5 111.5q-92 119 -94 121q-4 8 -4 16zM285 432q0 -76 2 -96q2 -53 16 -103q23 -68 59 -83q14 -8 48 -9q55 0 90 29q41 31 53 98q8 33 8 168q0 152 -4 180.5t-20 69.5q-23 45 -62 53q-18 4 -34 4q-10 0 -19 -2q-51 -6 -82 -45q-47 -55 -53 -168 q-2 -20 -2 -96z" />
<glyph unicode="&#xe1;" d="M70 451q0 121 8 165q18 127 100 193q68 55 182 72q16 2 55.5 1t57.5 -3q51 -6 92 -23l8 -2l7 6q18 12 38 19q8 2 33 2q29 2 54 -7q53 -20 69 -53l4 -8v-381q0 -385 -6 -397q-14 -20 -47 -31q-10 -2 -35 -2h-8q-37 0 -72 16l-12 9l-18 -9q-6 -2 -34 -8t-42 -8 q-31 -2 -60.5 -2t-58.5 2q-74 12 -133 41q-143 70 -174 246q-8 43 -8 162zM276 1085q0 12 4.5 20.5t122.5 123.5q117 119 127 121q10 6 35 14q47 0 62 -2q68 -16 86 -57q4 -10 4 -21q0 -12 -4 -18q-6 -12 -123 -125q-117 -115 -127 -121q-27 -15 -61 -15q-4 0 -9 1 q-43 4 -67 18q-33 14 -45 41q-5 10 -5 20zM285 432q0 -76 2 -96q2 -53 16 -103q23 -68 59 -83q14 -8 48 -9q55 0 90 29q41 31 53 98q8 33 8 168q0 152 -4 180.5t-20 69.5q-23 45 -62 53q-18 4 -34 4q-10 0 -19 -2q-51 -6 -82 -45q-47 -55 -53 -168q-2 -20 -2 -96z" />
<glyph unicode="&#xe2;" d="M57 1085q0 12 4.5 20.5t122.5 123.5q117 119 127 121q10 6 35 14q47 0 62 -2q37 -10 59 -27q6 -4 125 -118.5t121 -118.5q13 -21 13 -35q0 -38 -54 -53q-10 -2 -35 -2h-33q-29 6 -63 26q-2 0 -12 9l-28 29q-19 19 -34 32l-66 65l-75 -71q-80 -76 -82 -78q-27 -15 -61 -15 q-4 0 -9 1q-43 4 -68 18q-33 14 -45 41q-4 10 -4 20zM70 451q0 121 8 165q18 127 100 193q68 55 182 72q11 1 32 1h24q39 -1 57 -3q51 -6 92 -23l8 -2l7 6q18 12 38 19q8 2 33 2q29 2 54 -7q53 -20 69 -53l4 -8v-381q0 -385 -6 -397q-14 -20 -47 -31q-10 -2 -35 -2h-8 q-37 0 -72 16l-12 9l-18 -9q-6 -2 -34 -8t-42 -8q-31 -2 -60.5 -2t-58.5 2q-74 12 -133 41q-143 70 -174 246q-8 43 -8 162zM285 432q0 -76 2 -96q2 -53 16 -103q23 -68 59 -83q14 -8 48 -9q55 0 90 29q41 31 53 98q8 33 8 168q0 152 -4 180.5t-20 69.5q-23 45 -62 53 q-18 4 -34 4q-10 0 -19 -2q-51 -6 -82 -45q-47 -55 -53 -168q-2 -20 -2 -96z" />
<glyph unicode="&#xe3;" d="M57 1087q0 28 23 84q45 113 164 129q17 2 34 3q80 0 146 -50q37 -27 61 -67q0 -6 4 -6q6 0 19 59q2 12 8 25q10 25 49 32q8 4 35 4q33 0 53 -8q68 -20 74 -67q0 -47 -35 -117q-53 -94 -162 -102q-14 -2 -28 -2q-78 0 -144 49q-43 35 -59 67l-4 6q-6 0 -19 -59l-5 -14.5 t-3 -10.5q-10 -27 -49 -32q-8 -4 -33 -4q-37 0 -55 8q-74 22 -74 73zM70 451q0 121 8 165q18 127 100 193q68 55 182 72q11 1 32 1h24q39 -1 57 -3q51 -6 92 -23l8 -2l7 6q18 12 38 19q8 2 33 2q29 2 54 -7q53 -20 69 -53l4 -8v-381q0 -385 -6 -397q-14 -20 -47 -31 q-10 -2 -35 -2h-8q-37 0 -72 16l-12 9l-18 -9q-6 -2 -34 -8t-42 -8q-31 -2 -60.5 -2t-58.5 2q-74 12 -133 41q-143 70 -174 246q-8 43 -8 162zM285 432q0 -76 2 -96q2 -53 16 -103q23 -68 59 -83q14 -8 48 -9q55 0 90 29q41 31 53 98q8 33 8 168q0 152 -4 180.5t-20 69.5 q-23 45 -62 53q-18 4 -34 4q-10 0 -19 -2q-51 -6 -82 -45q-47 -55 -53 -168q-2 -20 -2 -96z" />
<glyph unicode="&#xe4;" d="M70 451q0 121 8 165q18 127 100 193q68 55 182 72q16 2 55.5 1t57.5 -3q51 -6 92 -23l8 -2l7 6q18 12 38 19q8 2 33 2q29 2 54 -7q53 -20 69 -53l4 -8v-381q0 -385 -6 -397q-14 -20 -47 -31q-10 -2 -35 -2h-8q-37 0 -72 16l-12 9l-18 -9q-6 -2 -34 -8t-42 -8 q-31 -2 -60.5 -2t-58.5 2q-74 12 -133 41q-143 70 -174 246q-8 43 -8 162zM90 1112q-2 0 -1 1q0 2 13 11q18 12 56 19q2 2 53 2q53 -2 61 -4q35 -8 54 -21q6 -2 16 -10t10 -10q-2 0 -22 10l-29 12l6 -6q18 -12 29 -33q4 -8 4 -20q2 -16 -12 -33l-6 -8l6 2q2 2 12 4q4 2 6 2 l12 4l-2 -2q-10 -14 -53 -26h-61h-64q-33 8 -53 20l-29 21q2 0 23 -9l31 -12l-9 4q-14 10 -28 33q-4 8 -4 22q0 18 12 31l8 8h-8l-6 -2q-8 -4 -11 -6zM190 1008l5 -2v2l-5 2v-2zM256 1141q0 -2 4 -2l-2 2h-2zM285 432q0 -76 2 -96q2 -53 16 -103q23 -68 59 -83q14 -8 48 -9 q55 0 90 29q41 31 53 98q8 33 8 168q0 152 -4 180.5t-20 69.5q-23 45 -62 53q-31 6 -53 2q-51 -6 -82 -45q-47 -55 -53 -168q-2 -20 -2 -96zM424 1112q6 8 12 12q18 12 58 19q0 2 53 2q51 -2 61 -4q37 -10 51 -21q6 -2 16.5 -10t10.5 -10q-10 4 -20 10l-31 12l6 -6 q23 -14 29 -33q4 -8 4 -20q2 -18 -12 -33l-7 -8l7 2l18 6l14 4q-2 0 -4 -2q-10 -14 -53 -26h-62h-61q-37 8 -55 20q-4 2 -11.5 7t-11.5 9l-4 5l21 -9l30 -12q-2 2 -6 4q-20 14 -28 33q-4 8 -5 22q-2 18 13 31l6 8h-6l-6 -2l-13 -6zM526 1008q0 -2 4 -2l-2 2l-2 2 q-1 0 -1 -0.5t1 -1.5zM590 1141q2 -2 4 -2l-2 2h-2z" />
<glyph unicode="&#xe5;" d="M70 451q0 121 8 165q18 127 100 193q68 55 182 72q16 2 55.5 1t57.5 -3q51 -6 92 -23l8 -2l7 6q18 12 38 19q8 2 33 2q29 2 54 -7q53 -20 69 -53l4 -8v-381q0 -385 -6 -397q-14 -20 -47 -31q-10 -2 -35 -2h-8q-37 0 -72 16l-12 9l-18 -9q-6 -2 -34 -8t-42 -8 q-31 -2 -60.5 -2t-58.5 2q-74 12 -133 41q-143 70 -174 246q-8 43 -8 162zM193 1217q0 51 14 94q31 78 135 94q14 2 30 2t34 -2q82 -6 133 -57q55 -55 55 -152q0 -51 -14 -94q-27 -63 -91 -84q-37 -12 -77 -13q-26 0 -53 6q-69 13 -111 54q-55 56 -55 152zM285 432 q0 -76 2 -96q2 -53 16 -103q23 -68 59 -83q14 -8 48 -9q55 0 90 29q41 31 53 98q8 33 8 168q0 152 -4 180.5t-20 69.5q-23 45 -62 53q-18 4 -34 4q-10 0 -19 -2q-51 -6 -82 -45q-47 -55 -53 -168q-2 -20 -2 -96z" />
<glyph unicode="&#xe6;" horiz-adv-x="1447" d="M68 468q0 77 2 101q6 45 20 101q45 129 164 180q53 23 139 31q8 1 29 1h24q41 -1 54 -3q49 -4 102 -23l21 -6l8 8q14 14 39 21q8 2 34 2q25 0 33 -2q41 -8 58 -25q8 -4 12 -2q41 16 102 27q28 4 65 3q24 0 52 -1q57 -6 121 -27q51 -18 78 -39q113 -72 139 -213 q13 -56 13 -101q0 -11 -1 -22q0 -29 -12 -47q-20 -37 -76 -53q-27 -8 -248 -8h-209v-6q0 -70 13 -103q25 -104 90 -117q24 -7 48 -6q41 0 85 19q31 16 53 51q16 27 53 39q8 2 35 2q27 2 54 -6q53 -20 67 -51q4 -8 4 -19q0 -21 -18 -47q-68 -100 -238 -125q-36 -3 -64 -3 t-48 3q-74 6 -121 27l-19 6l-10 -8q-10 -14 -39 -23q-10 -2 -35 -2h-32q-33 6 -58 25l-6 2l-16 -6q-61 -20 -150 -23q-41 0 -61 2q-70 6 -121 27q-33 8 -78 39q-137 90 -149 292q-2 31 -2 108zM285 431q0 -73 2 -93q6 -123 59 -172q31 -27 90 -27h8q68 2 105 35 q49 37 61 131q0 4 4 133q0 143 -6 174q-8 51 -28 82q-27 39 -70 45q-26 4 -44 4q-12 0 -22 -2q-104 -8 -141 -125q-14 -49 -16 -92q-2 -20 -2 -93zM831 510h164h164v8q0 29 -4 66q-16 113 -78 147q-31 8 -43 10q-14 2 -28 2q-54 0 -97 -32q-68 -51 -78 -185v-16z" />
<glyph unicode="&#xe7;" horiz-adv-x="780" d="M68 449.5q0 101.5 2 123.5q12 121 59 195q27 37 64 63q55 37 126 48q4 0 11.5 1t9.5 1q4 1 25 1h24q43 -1 57 -3q135 -16 205 -86q58 -58 58 -137q0 -23 -17 -40q-8 -10 -37 -18q-35 -8 -61 -2q-76 14 -94 55q-8 20 -8 35q0 25 -15 43q-8 12 -59 12q-25 2 -49 -10 q-61 -33 -78 -153q-6 -53 -6 -166q2 -113 6 -144q12 -78 49 -114q18 -16 59 -13q31 0 54 13q35 16 39 69q2 18 6 27q12 23 51 35q8 2 33 2q29 2 53 -6q53 -20 70 -54q4 -8 4 -24q0 -96 -78 -150q-80 -53 -217 -53q-53 0 -105 12q-74 20 -125 64q-25 18 -47 49 q-55 78 -67 205q-2 18 -2 119.5zM182 -285q0 12 2 19q8 18 74 127q66 115 76 125q18 18 49 24q16 2 31.5 2t29.5 -2q68 -16 86 -57q4 -10 5 -21q0 -12 -3 -18q-8 -18 -73 -127q-57 -98 -68.5 -114.5t-28.5 -24.5q-16 -10 -53 -10q-6 0 -12 -1q-24 0 -43 7q-51 16 -68 51 q-4 10 -4 20z" />
<glyph unicode="&#xe8;" d="M70 334v115q-1 23 -1 44q0 63 5 107q12 78 45 135q80 125 258 144q16 2 54 2t56 -2q150 -18 238 -107q94 -100 94 -278q0 -33 -2 -43q-4 -12 -10 -19q-18 -35 -74 -53q-29 -8 -246 -8h-202v-6q0 -39 6 -64q12 -127 84 -154q16 -6 51 -6q43 0 66 9q53 20 73 59 q10 20 31 31q23 10 55 10q29 2 54 -6q37 -12 58 -37t15 -47q-10 -33 -49 -68q-70 -74 -201 -88q-20 -2 -63 -3h-26q-24 0 -38 1q-180 27 -262 135q-55 80 -69 197zM115 1294q-2 6 -2 12q0 16 13 29q17 18 50 25q49 0 62 -2q43 -10 65 -31q6 -4 98 -123l44 -56l36 -46 q12 -16 15 -19q4 -8 4 -16q1 -6 1 -11q0 -34 -55 -50q-8 -2 -32 -2q-4 0 -8 -1q-35 0 -72 17q-16 8 -31.5 25.5t-89.5 111.5q-92 119 -94 121q-4 8 -4 16zM285 510h159h160v8q0 35 -6 64q-6 68 -37 110q-23 39 -65 47q-20 4 -36 4q-11 0 -20 -2q-18 -2 -45 -10 q-98 -39 -108 -205z" />
<glyph unicode="&#xe9;" d="M70 334v115q-1 23 -1 44q0 63 5 107q12 78 45 135q80 125 258 144q16 2 54 2t56 -2q150 -18 238 -107q94 -100 94 -278q0 -33 -2 -43q-4 -12 -10 -19q-18 -35 -74 -53q-29 -8 -246 -8h-202v-6q0 -39 6 -64q12 -127 84 -154q16 -6 51 -6q43 0 66 9q53 20 73 59 q10 20 31 31q23 10 55 10q29 2 54 -6q37 -12 58 -37t15 -47q-10 -33 -49 -68q-70 -74 -201 -88q-20 -2 -63 -3h-26q-24 0 -38 1q-180 27 -262 135q-55 80 -69 197zM285 510h159h160v8q0 35 -6 64q-6 68 -37 110q-23 39 -65 47q-33 6 -56 2q-18 -2 -45 -10q-98 -39 -108 -205 zM313 1083q0 12 4.5 20.5t122.5 123.5q117 119 127 121q10 6 35 14q47 0 62 -2q68 -16 86 -57q4 -10 4 -21q0 -12 -4 -18q-6 -12 -123 -125q-117 -115 -127 -121q-27 -15 -61 -15q-4 0 -9 1q-43 4 -68 18q-33 14 -45 41q-4 10 -4 20z" />
<glyph unicode="&#xea;" d="M70 334v115q-1 23 -1 44q0 63 5 107q12 78 45 135q80 125 258 144q16 2 54 2t56 -2q150 -18 238 -107q94 -100 94 -278q0 -33 -2 -43q-4 -12 -10 -19q-18 -35 -74 -53q-29 -8 -246 -8h-202v-6q0 -39 6 -64q12 -127 84 -154q16 -6 51 -6q43 0 66 9q53 20 73 59 q10 20 31 31q23 10 55 10q29 2 54 -6q37 -12 58 -37t15 -47q-10 -33 -49 -68q-70 -74 -201 -88q-20 -2 -63 -3h-26q-24 0 -38 1q-180 27 -262 135q-55 80 -69 197zM96 1083q0 12 4 20.5t123 123.5q117 119 127 121q10 6 35 14q47 0 61 -2q37 -10 60 -27q6 -4 125 -118.5 t121 -118.5q13 -21 12 -35q0 -38 -53 -53q-10 -2 -35 -2h-33q-29 6 -63 26q-2 0 -12 9l-28 29q-19 19 -34 32l-66 65l-75 -71q-80 -76 -82 -78q-27 -15 -61 -15q-4 0 -9 1q-43 4 -68 18q-33 14 -45 41q-4 10 -4 20zM285 510h159h160v8q0 35 -6 64q-6 68 -37 110 q-23 39 -65 47q-20 4 -36 4q-11 0 -20 -2q-18 -2 -45 -10q-98 -39 -108 -205z" />
<glyph unicode="&#xeb;" d="M70 334v115q-1 23 -1 44q0 63 5 107q12 78 45 135q80 125 258 144q16 2 54 2t56 -2q150 -18 238 -107q94 -100 94 -278q0 -33 -2 -43q-4 -12 -10 -19q-18 -35 -74 -53q-29 -8 -246 -8h-202v-6q0 -39 6 -64q12 -127 84 -154q16 -6 51 -6q43 0 66 9q53 20 73 59 q10 20 31 31q23 10 55 10q29 2 54 -6q37 -12 58 -37t15 -47q-10 -33 -49 -68q-70 -74 -201 -88q-20 -2 -63 -3h-26q-24 0 -38 1q-180 27 -262 135q-55 80 -69 197zM129 1110q-2 0 -2 1q0 2 14 11q18 12 56 19q2 2 53 2q53 -2 61 -4q35 -8 54 -21q6 -2 16 -10t10 -10 q-2 0 -22 10l-29 12l6 -6q18 -12 29 -33q4 -8 4 -20q2 -16 -12 -33l-7 -8l7 2q2 2 12 4q4 2 6 2l12 4l-2 -2q-10 -14 -53 -26h-61h-64q-33 8 -53 20l-29 20q2 0 23 -8l30 -12l-8 4q-14 10 -28 33q-4 8 -5 22q0 18 13 31l8 8h-8l-6 -2q-8 -4 -11 -6zM229 1006l4 -2v2l-4 2v-2 zM285 510h159h160v8q0 35 -6 64q-6 68 -37 110q-23 39 -65 47q-33 6 -56 2q-18 -2 -45 -10q-98 -39 -108 -205zM295 1139q0 -2 4 -2l-2 2h-2zM463 1110q6 8 12 12q18 12 57 19q0 2 54 2q51 -2 61 -4q37 -10 51 -21q6 -2 16.5 -10t10.5 -10q-10 4 -20 10l-31 12l6 -6 q23 -14 29 -33q4 -8 4 -20q2 -18 -13 -33l-6 -8l6 2l19 6l14 4q-2 0 -4 -2q-10 -14 -53 -26h-62h-61q-37 8 -55 20q-4 2 -11.5 7t-11.5 9l-4 4l21 -8l30 -12q-2 2 -6 4q-20 14 -29 33q-4 8 -4 22q-2 18 13 31l6 8h-6l-7 -2l-12 -6zM565 1006q0 -2 4 -2l-2 2l-2 2 q-1 0 -1 -0.5t1 -1.5zM629 1139q2 -2 4 -2l-2 2h-2z" />
<glyph unicode="&#xec;" horiz-adv-x="346" d="M-170 1296q-2 6 -2 12q0 16 13 29q17 18 50 25q49 0 62 -2q43 -10 65 -31q6 -4 99 -123l44 -56l36 -46q12 -16 14 -19q4 -8 4 -16q1 -6 1 -11q0 -34 -54 -50q-8 -2 -33 -2q-4 0 -8 -1q-35 0 -72 17q-16 8 -31.5 25.5t-89.5 111.5q-92 119 -94 121q-4 8 -4 16zM63 449 q0 387 7 399q20 23 57 33q7 1 19 1h13q22 -1 29 -3q68 -14 86 -58l7 -8v-381q0 -385 -7 -397q-14 -20 -49 -31q-8 -2 -32 -2h-13q-24 0 -43 6q-51 16 -67 51l-4 13z" />
<glyph unicode="&#xed;" horiz-adv-x="346" d="M29 1085q0 12 4 20.5t123 123.5q117 119 127 121q10 6 34 14q47 0 62 -2q68 -16 86 -57q4 -10 4 -21q0 -12 -4 -18q-6 -12 -123 -125q-117 -115 -127 -121q-27 -15 -61 -15q-4 0 -9 1q-43 4 -67 18q-33 14 -45 41q-4 10 -4 20zM63 449q0 387 7 399q20 23 57 33q7 1 19 1 h13q22 -1 29 -3q68 -14 86 -58l7 -8v-381q0 -385 -7 -397q-14 -20 -49 -31q-8 -2 -32 -2h-13q-24 0 -43 6q-51 16 -67 51l-4 13z" />
<glyph unicode="&#xee;" horiz-adv-x="346" d="M-188 1085q0 12 4 20.5t123 123.5q117 119 127 121q10 6 34 14q47 0 62 -2q37 -10 59 -27q6 -4 125 -118.5t121 -118.5q13 -21 13 -35q0 -38 -54 -53q-10 -2 -35 -2h-33q-29 6 -63 26q-2 0 -11 9l-29 29q-19 19 -34 32l-65 65l-76 -71q-80 -76 -82 -78q-27 -15 -61 -15 q-4 0 -9 1q-43 4 -67 18q-33 14 -45 41q-4 10 -4 20zM63 449q0 387 7 399q20 23 57 33q7 1 19 1h13q22 -1 29 -3q68 -14 86 -58l7 -8v-381q0 -385 -7 -397q-14 -20 -49 -31q-8 -2 -32 -2h-13q-24 0 -43 6q-51 16 -67 51l-4 13z" />
<glyph unicode="&#xef;" horiz-adv-x="346" d="M-156 1112q-2 0 -1 1q0 2 14 11q18 12 55 19q2 2 53 2q53 -2 62 -4q35 -8 53 -21q6 -2 16 -10t10 -10q-2 0 -22 10l-29 12l6 -6q18 -12 29 -33q4 -8 4 -20q2 -16 -12 -33l-6 -8l6 2q2 2 12 4q4 2 6 2l13 4l-2 -2q-10 -14 -54 -26h-61h-64q-33 8 -53 20l-29 21q2 0 23 -9 l31 -12l-8 4q-14 10 -29 33q-4 8 -4 22q0 18 12 31l8 8h-8l-6 -2q-8 -4 -10 -6zM-55 1008l4 -2v2l-4 2v-2zM10 1141q0 -2 4 -2l-2 2h-2zM63 449q0 387 7 399q20 23 57 33q10 2 31.5 1t29.5 -3q68 -14 86 -58l7 -8v-381q0 -385 -7 -397q-14 -20 -49 -31q-8 -2 -32 -2h-13 q-24 0 -43 6q-51 16 -67 51l-4 13zM178 1112q6 8 12 12q18 12 58 19q0 2 53 2q51 -2 61 -4q37 -10 52 -21q6 -2 16 -10t10 -10q-10 4 -20 10l-31 12l6 -6q23 -14 29 -33q4 -8 4 -20q2 -18 -12 -33l-6 -8l6 2l18 6l15 4q-2 0 -5 -2q-10 -14 -53 -26h-61h-62q-37 8 -55 20 q-4 2 -11 7t-12 9l-4 5l21 -9l31 -12q-2 2 -7 4q-20 14 -28 33q-4 8 -4 22q-2 18 12 31l6 8h-6l-6 -2l-12 -6zM281 1008q0 -2 4 -2l-2 2l-2 2q-1 0 -1 -0.5t1 -1.5zM344 1141q2 -2 4 -2l-2 2h-2z" />
<glyph unicode="&#xf1;" d="M111 449q0 387 6 399q20 23 57 33q10 2 31.5 1t30.5 -3q37 -8 53 -21l6 -2q8 6 51 16q32 9 71 9h15q43 0 57 -2q131 -18 213 -97q59 -63 74 -170q2 -10 4 -286q0 -279 -8 -291q-14 -20 -47 -31q-10 -2 -35 -2h-11q-22 0 -42 6q-51 16 -70 51l-4 13v272q-2 276 -4 289 q-10 63 -39 92q-12 12 -47 18q-18 0 -45 -10q-37 -18 -61 -67q-31 -61 -37 -170q-2 -14 -2 -236q0 -213 -6 -225q-14 -20 -50 -31q-8 -2 -32 -2h-12q-24 0 -44 6q-51 16 -67 51l-4 13zM110 1087q0 28 23 84q45 113 164 129q17 2 34 3q80 0 146 -50q37 -27 62 -67q0 -6 4 -6 q6 0 18 59q2 12 8 25q10 25 49 32q8 4 35 4q33 0 54 -8q68 -20 73 -67q0 -47 -35 -117q-53 -94 -161 -102q-14 -2 -28 -2q-78 0 -144 49q-43 35 -60 67l-4 6q-6 0 -18 -59l-5 -14.5t-3 -10.5q-10 -27 -50 -32q-8 -4 -32 -4q-37 0 -56 8q-74 22 -74 73z" />
<glyph unicode="&#xf2;" d="M70 334v115q-1 23 -1 44q0 63 5 107q12 78 45 135q80 125 258 144q16 2 54 2t56 -2q178 -23 263 -136q55 -80 69 -194v-117q1 -23 1 -43q0 -61 -5 -104q-12 -78 -45 -138q-78 -127 -260 -145q-18 -3 -45.5 -3t-63.5 3q-178 25 -262 135q-55 80 -69 197zM115 1294 q-2 6 -2 12q0 16 13 29q17 18 50 25q49 0 62 -2q43 -10 65 -31q6 -4 98 -123l44 -56l36 -46q12 -16 15 -19q4 -8 4 -16q1 -6 1 -11q0 -34 -55 -50q-8 -2 -32 -2q-4 0 -8 -1q-35 0 -72 17q-16 8 -31.5 25.5t-89.5 111.5q-92 119 -94 121q-4 8 -4 16zM285 449.5 q0 -76.5 2 -107.5q6 -98 41 -152q20 -37 65 -49q16 -2 31 -1q22 0 41 3q45 8 72 39q51 47 65 152q2 23 2 99.5t-2 107.5q-6 98 -41 151q-23 39 -65 47q-20 4 -36 4q-11 0 -20 -2q-55 -6 -90 -41q-47 -47 -63 -151q-2 -23 -2 -99.5z" />
<glyph unicode="&#xf3;" d="M70 334v115q-1 23 -1 44q0 63 5 107q12 78 45 135q80 125 258 144q16 2 54 2t56 -2q178 -23 263 -136q55 -80 69 -194v-117q1 -23 1 -43q0 -61 -5 -104q-12 -78 -45 -138q-78 -127 -260 -145q-18 -3 -45.5 -3t-63.5 3q-178 25 -262 135q-55 80 -69 197zM285 449.5 q0 -76.5 2 -107.5q6 -98 41 -152q20 -37 65 -49q16 -2 31 -1q22 0 41 3q45 8 72 39q51 47 65 152q2 23 2 99.5t-2 107.5q-6 98 -41 151q-23 39 -65 47q-33 6 -56 2q-55 -6 -90 -41q-47 -47 -63 -151q-2 -23 -2 -99.5zM313 1083q0 12 4.5 20.5t122.5 123.5q117 119 127 121 q10 6 35 14q47 0 62 -2q68 -16 86 -57q4 -10 4 -21q0 -12 -4 -18q-6 -12 -123 -125q-117 -115 -127 -121q-27 -15 -61 -15q-4 0 -9 1q-43 4 -68 18q-33 14 -45 41q-4 10 -4 20z" />
<glyph unicode="&#xf4;" d="M70 334v115q-1 23 -1 44q0 63 5 107q12 78 45 135q80 125 258 144q16 2 54 2t56 -2q178 -23 263 -136q55 -80 69 -194v-117q1 -23 1 -43q0 -61 -5 -104q-12 -78 -45 -138q-78 -127 -260 -145q-18 -3 -45.5 -3t-63.5 3q-178 25 -262 135q-55 80 -69 197zM96 1083 q0 12 4 20.5t123 123.5q117 119 127 121q10 6 35 14q47 0 61 -2q37 -10 60 -27q6 -4 125 -118.5t121 -118.5q13 -21 12 -35q0 -38 -53 -53q-10 -2 -35 -2h-33q-29 6 -63 26q-2 0 -12 9l-28 29q-19 19 -34 32l-66 65l-75 -71q-80 -76 -82 -78q-27 -15 -61 -15q-4 0 -9 1 q-43 4 -68 18q-33 14 -45 41q-4 10 -4 20zM285 449.5q0 -76.5 2 -107.5q6 -98 41 -152q20 -37 65 -49q16 -2 31 -1q22 0 41 3q45 8 72 39q51 47 65 152q2 23 2 99.5t-2 107.5q-6 98 -41 151q-23 39 -65 47q-20 4 -36 4q-11 0 -20 -2q-55 -6 -90 -41q-47 -47 -63 -151 q-2 -23 -2 -99.5z" />
<glyph unicode="&#xf5;" d="M70 334v115q-1 23 -1 44q0 63 5 107q12 78 45 135q80 125 258 144q16 2 54 2t56 -2q178 -23 263 -136q55 -80 69 -194v-117q1 -23 1 -43q0 -61 -5 -104q-12 -78 -45 -138q-78 -127 -260 -145q-18 -3 -45.5 -3t-63.5 3q-178 25 -262 135q-55 80 -69 197zM96 1087 q0 28 23 84q45 113 164 129q17 2 33 3q80 0 147 -50q37 -27 61 -67q0 -6 4 -6q6 0 19 59q2 12 8 25q10 25 49 32q8 4 35 4q33 0 53 -8q68 -20 74 -67q0 -47 -35 -117q-53 -94 -162 -102q-14 -2 -28 -2q-78 0 -144 49q-43 35 -59 67l-4 6q-6 0 -19 -59l-5 -14.5t-3 -10.5 q-10 -27 -49 -32q-8 -4 -33 -4q-37 0 -55 8q-74 22 -74 73zM285 449.5q0 -76.5 2 -107.5q6 -98 41 -152q20 -37 65 -49q16 -2 31 -1q22 0 41 3q45 8 72 39q51 47 65 152q2 23 2 99.5t-2 107.5q-6 98 -41 151q-23 39 -65 47q-20 4 -36 4q-11 0 -20 -2q-55 -6 -90 -41 q-47 -47 -63 -151q-2 -23 -2 -99.5z" />
<glyph unicode="&#xf6;" d="M70 334v115q-1 23 -1 44q0 63 5 107q12 78 45 135q80 125 258 144q16 2 54 2t56 -2q178 -23 263 -136q55 -80 69 -194v-117q1 -23 1 -43q0 -61 -5 -104q-12 -78 -45 -138q-78 -127 -260 -145q-18 -3 -45.5 -3t-63.5 3q-178 25 -262 135q-55 80 -69 197zM129 1110 q-2 0 -2 1q0 2 14 11q18 12 56 19q2 2 53 2q53 -2 61 -4q35 -8 54 -21q6 -2 16 -10t10 -10q-2 0 -22 10l-29 12l6 -6q18 -12 29 -33q4 -8 4 -20q2 -16 -12 -33l-7 -8l7 2q2 2 12 4q4 2 6 2l12 4l-2 -2q-10 -14 -53 -26h-61h-64q-33 8 -53 20l-29 20q2 0 23 -8l30 -12l-8 4 q-14 10 -28 33q-4 8 -5 22q0 18 13 31l8 8h-8l-6 -2q-8 -4 -11 -6zM229 1006l4 -2v2l-4 2v-2zM285 449.5q0 -76.5 2 -107.5q6 -98 41 -152q20 -37 65 -49q16 -2 31 -1q22 0 41 3q45 8 72 39q51 47 65 152q2 23 2 99.5t-2 107.5q-6 98 -41 151q-23 39 -65 47q-33 6 -56 2 q-55 -6 -90 -41q-47 -47 -63 -151q-2 -23 -2 -99.5zM295 1139q0 -2 4 -2l-2 2h-2zM463 1110q6 8 12 12q18 12 57 19q0 2 54 2q51 -2 61 -4q37 -10 51 -21q6 -2 16.5 -10t10.5 -10q-10 4 -20 10l-31 12l6 -6q23 -14 29 -33q4 -8 4 -20q2 -18 -13 -33l-6 -8l6 2l19 6l14 4 q-2 0 -4 -2q-10 -14 -53 -26h-62h-61q-37 8 -55 20q-4 2 -11.5 7t-11.5 9l-4 4l21 -8l30 -12q-2 2 -6 4q-20 14 -29 33q-4 8 -4 22q-2 18 13 31l6 8h-6l-7 -2l-12 -6zM565 1006q0 -2 4 -2l-2 2l-2 2q-1 0 -1 -0.5t1 -1.5zM629 1139q2 -2 4 -2l-2 2h-2z" />
<glyph unicode="&#xf8;" d="M70 451q-1 23 -1 43q0 62 5 106q12 76 45 135q78 127 260 148h59q37 0 41 -2h8l11 28l5 15l5 13q2 5 4 7q14 31 57 37q16 2 31.5 2t30.5 -2q68 -16 86 -57q4 -10 4 -21q0 -14 -14 -55l-17 -43q2 -2 9.5 -8t14.5 -14l11 -11q68 -70 88 -184q6 -41 6 -154q1 -23 1 -43 q0 -62 -5 -106q-12 -76 -45 -135q-78 -127 -260 -148h-57q-39 0 -43 2h-9l-10 -29q-2 -6 -5 -14l-5 -13q-2 -5 -4 -7q-10 -25 -49 -35q-8 -2 -33 -2q-6 0 -12 -1q-24 0 -43 7q-51 16 -68 51q-4 10 -4 21q0 14 14 55l17 43q-2 2 -9.5 8t-14.5 13l-11 12q-68 70 -88 184 q-6 41 -6 154zM287 330q0 -2 49 132l96 265l4 16q-6 -2 -14 -4q-45 -10 -70 -37q-51 -47 -65 -153v-119v-100zM451 141l16 4q45 10 70 37q51 47 65 154v33q2 33 2 86l-2 100l-4 -8q-2 -8 -8 -25l-16 -41l-21 -58l-27 -73z" />
<glyph unicode="&#xf9;" d="M-123 1296q-2 6 -1 12q0 16 12 29q17 18 51 25q49 0 61 -2q43 -10 66 -31q6 -4 98 -123l44 -56l36 -46q12 -16 14 -19q4 -8 4 -16q1 -6 2 -11q0 -34 -55 -50q-8 -2 -33 -2q-4 0 -8 -1q-35 0 -72 17q-16 8 -31.5 25.5t-89.5 111.5q-92 119 -94 121q-4 8 -4 16zM111 555 q0 281 6 293q20 23 57 33q7 1 19 1h13q22 -1 30 -3q68 -14 86 -58l6 -8v-274q2 -246 2 -289q14 -70 41 -92q16 -16 45 -19q27 0 47 11q35 16 59 65q33 63 39 172q2 14 2 234q0 215 6 227q14 20 49 31q8 2 35 2q27 2 54 -7q53 -20 67 -53l6 -8v-381q0 -303 -1 -345t-7 -52 q-14 -20 -47 -31q-10 -2 -35 -2h-11q-22 0 -42 6q-12 4 -37 17l-4 2q-10 -6 -49 -17q-34 -9 -73 -8h-15h-56q-139 18 -213 98q-59 57 -77 168q0 43 -2 287z" />
<glyph unicode="&#xfa;" d="M76 1085q0 12 4 20.5t123 123.5q117 119 127 121q10 6 35 14q47 0 61 -2q68 -16 86 -57q4 -10 4 -21q0 -12 -4 -18q-6 -12 -123 -125q-117 -115 -127 -121q-27 -15 -61 -15q-4 0 -8 1q-43 4 -68 18q-33 14 -45 41q-4 10 -4 20zM111 555q0 281 6 293q20 23 57 33q7 1 19 1 h13q22 -1 30 -3q68 -14 86 -58l6 -8v-274q2 -246 2 -289q14 -70 41 -92q16 -16 45 -19q27 0 47 11q35 16 59 65q33 63 39 172q2 14 2 234q0 215 6 227q14 20 49 31q8 2 35 2q27 2 54 -7q53 -20 67 -53l6 -8v-381q0 -303 -1 -345t-7 -52q-14 -20 -47 -31q-10 -2 -35 -2h-11 q-22 0 -42 6q-12 4 -37 17l-4 2q-10 -6 -49 -17q-34 -9 -73 -8h-15h-56q-139 18 -213 98q-59 57 -77 168q0 43 -2 287z" />
<glyph unicode="&#xfb;" d="M-141 1085q0 12 4 20.5t123 123.5q117 119 127 121q10 6 34 14q47 0 62 -2q37 -10 59 -27q6 -4 125 -118.5t121 -118.5q13 -21 13 -35q0 -38 -54 -53q-10 -2 -35 -2h-32q-29 6 -64 26q-2 0 -11 9l-29 29q-19 19 -34 32l-65 65l-76 -71q-80 -76 -82 -78q-27 -15 -61 -15 q-4 0 -9 1q-43 4 -67 18q-33 14 -45 41q-4 10 -4 20zM111 555q0 281 6 293q20 23 57 33q7 1 19 1h13q22 -1 30 -3q68 -14 86 -58l6 -8v-274q2 -246 2 -289q14 -70 41 -92q16 -16 45 -19q27 0 47 11q35 16 59 65q33 63 39 172q2 14 2 234q0 215 6 227q14 20 49 31q8 2 35 2 q27 2 54 -7q53 -20 67 -53l6 -8v-381q0 -303 -1 -345t-7 -52q-14 -20 -47 -31q-10 -2 -35 -2h-11q-22 0 -42 6q-12 4 -37 17l-4 2q-10 -6 -49 -17q-34 -9 -73 -8h-15h-56q-139 18 -213 98q-59 57 -77 168q0 43 -2 287z" />
<glyph unicode="&#xfc;" d="M-109 1112q-2 0 -1 1q0 2 14 11q18 12 55 19q2 2 53 2q53 -2 62 -4q35 -8 53 -21q6 -2 16.5 -10t10.5 -10q-2 0 -23 10l-29 12l7 -6q18 -12 28 -33q4 -8 4 -20q2 -16 -12 -33l-6 -8l6 2q2 2 12 4q4 2 6 2l13 4l-2 -2q-10 -14 -54 -26h-61h-63q-33 8 -54 20l-28 21 q2 0 22 -9l31 -12l-8 4q-14 10 -29 33q-4 8 -4 22q0 18 12 31l8 8h-8l-6 -2q-8 -4 -10 -6zM-8 1008l4 -2v2l-4 2v-2zM57 1141q0 -2 4 -2l-2 2h-2zM111 555q0 281 6 293q20 23 57 33q10 2 31.5 1t30.5 -3q68 -14 86 -58l6 -8v-274q2 -246 2 -289q14 -70 41 -92q16 -16 45 -19 q27 0 47 11q35 16 59 65q33 63 39 172q2 14 2 234q0 215 6 227q14 20 49 31q8 2 35 2q27 2 54 -7q53 -20 67 -53l6 -8v-381q0 -303 -1 -345t-7 -52q-14 -20 -47 -31q-10 -2 -35 -2h-11q-22 0 -42 6q-12 4 -37 17l-4 2q-10 -6 -49 -17q-34 -9 -73 -8h-15h-56q-139 18 -213 98 q-59 57 -77 168q0 43 -2 287zM225 1112q6 8 13 12q18 12 57 19q0 2 53 2q51 -2 62 -4q37 -10 51 -21q6 -2 16 -10t10 -10q-10 4 -20 10l-31 12l6 -6q23 -14 29 -33q4 -8 4 -20q2 -18 -12 -33l-6 -8l6 2l18 6l15 4q-2 0 -4 -2q-10 -14 -54 -26h-61h-62q-37 8 -55 20 q-4 2 -11 7t-11 9l-5 5l21 -9l31 -12q-2 2 -6 4q-20 14 -29 33q-4 8 -4 22q-2 18 12 31l6 8h-6l-6 -2l-12 -6zM328 1008q0 -2 4 -2l-2 2l-2 2q-1 0 -1 -0.5t1 -1.5zM391 1141q2 -2 4 -2l-2 2h-2z" />
<glyph unicode="&#xfd;" d="M111 557q0 281 6 293q20 23 57 33q49 0 62 -2q68 -16 86 -58l6 -10v-272q2 -248 2 -289q12 -70 41 -94q14 -14 45 -17q25 0 47 9q37 20 59 67q33 63 39 170q2 16 2 236q0 215 6 227q14 23 49 29q8 4 35 4q33 0 54 -9q51 -16 67 -51l6 -10v-438q0 -420 -4 -465 q-8 -88 -35 -146q-59 -133 -223 -159q-30 -3 -52.5 -3t-37.5 3q-135 12 -225 90q-55 47 -82 110q-12 27 -4 50q14 23 51 32q8 4 35 4q43 0 76 -16q35 -18 47 -47q12 -31 34 -55q31 -31 67 -31q20 0 42 10q47 23 72 94q16 41 22 136q0 33 -4 32q-16 -6 -45 -10 q-27 -2 -54.5 -2t-56.5 2q-137 18 -213 96q-59 59 -77 170q0 43 -2 287zM297 1085q0 12 4 20.5t123 123.5q117 119 127 121q10 6 35 14q47 0 61 -2q68 -16 86 -57q4 -10 4 -21q0 -12 -4 -18q-6 -12 -123 -125q-117 -115 -127 -121q-27 -15 -61 -15q-4 0 -8 1q-43 4 -68 18 q-33 14 -45 41q-4 10 -4 20z" />
<glyph unicode="&#xff;" d="M111 557q0 281 6 293q20 23 57 33q49 0 62 -2q68 -16 86 -58l6 -10v-272q2 -248 2 -289q12 -70 41 -94q14 -14 45 -17q25 0 47 9q37 20 59 67q33 63 39 170q2 16 2 236q0 215 6 227q14 23 49 29q8 4 35 4q33 0 54 -9q51 -16 67 -51l6 -10v-438q0 -420 -4 -465 q-8 -88 -35 -146q-59 -133 -223 -159q-30 -3 -52.5 -3t-37.5 3q-135 12 -225 90q-55 47 -82 110q-12 27 -4 50q14 23 51 32q8 4 35 4q43 0 76 -16q35 -18 47 -47q12 -31 34 -55q31 -31 67 -31q20 0 42 10q47 23 72 94q16 41 22 136q0 33 -4 32q-16 -6 -45 -10 q-27 -2 -54.5 -2t-56.5 2q-137 18 -213 96q-59 59 -77 170q0 43 -2 287zM113 1112q-2 0 -2 1q0 2 14 11q18 12 55 19q2 2 53 2q53 -2 62 -4q35 -8 53 -21q6 -2 16.5 -10t10.5 -10q-2 0 -23 10l-28 12l6 -6q18 -12 28 -33q4 -8 4 -20q2 -16 -12 -33l-6 -8l6 2q2 2 12 4 q4 2 7 2l12 4l-2 -2q-10 -14 -53 -26h-62h-63q-33 8 -54 20l-28 21q2 0 22 -9l31 -12l-8 4q-14 10 -29 33q-4 8 -4 22q0 18 12 31l9 8h-9l-6 -2q-8 -4 -10 -6zM213 1008l4 -2v2l-4 2v-2zM279 1141q0 -2 4 -2l-2 2h-2zM446 1112q6 8 13 12q18 12 57 19q0 2 53 2q51 -2 62 -4 q37 -10 51 -21q6 -2 16.5 -10t10.5 -10q-10 4 -21 10l-31 12l7 -6q23 -14 28 -33q4 -8 4 -20q2 -18 -12 -33l-6 -8l6 2l18 6l15 4q-2 0 -4 -2q-10 -14 -54 -26h-61h-61q-37 8 -56 20q-4 2 -11 7t-11 9l-4 5l20 -9l31 -12q-2 2 -6 4q-20 14 -29 33q-4 8 -4 22q-2 18 12 31 l6 8h-6l-6 -2l-12 -6zM549 1008q0 -2 4 -2l-2 2l-2 2q-1 0 -1 -0.5t1 -1.5zM612 1141q2 -2 4 -2l-2 2h-2z" />
<glyph unicode="&#x152;" horiz-adv-x="1894" d="M111 711q0 313 104 489q31 49 74 92q49 49 123 86q106 55 247 64q10 1 32 1h25q42 -1 56 -3q94 -12 160 -45l18 -9l13 5q16 8 57 9t321 1h2h3h4h2h2h2h2h2h4h2h2h2h2h2h4h2h2h2h2h3h2h4h2h2h2h2h2h2h2h4h2h2h2h2h2h2h2h3h2h4h2h2h2h2h2h2h2h2h2h2h2h2h2h2h2h2h2h5h2h2h2 h2h2h2h2h2q199 -2 215 -8q2 -2 4 -2q43 -12 63 -41q11 -16 10 -30q0 -12 -7 -24q-14 -20 -50 -30l-10 -2l-289 -2h-288v-232v-231h215h96q127 -2 145 -8l4 -3q41 -12 60.5 -40.5t3.5 -53.5q-14 -20 -47 -30l-12 -2l-234 -3h-231v-260v-258h272h119q160 -2 176 -8l4 -2 q43 -14 63 -42q11 -15 10 -30q0 -12 -7 -24q-14 -23 -50 -29l-10 -4h-340h-159q-201 0 -220 6l-4 2l-16 6l-16 -10q-63 -33 -154 -45q-33 -2 -68.5 -2t-72.5 2q-176 23 -299 105q-92 63 -152 159q-23 41 -29 58q-75 160 -75 428zM328 692q0 -78 2 -104q12 -182 67 -297 q86 -178 281 -191q13 -1 26 -1q60 0 107 24q98 51 109 221q2 29 2 384t-2 372q-12 76 -31 117q-39 74 -107 83q-26 4 -48 4q-15 0 -27 -1q-76 -6 -146 -39q-88 -45 -145 -138q-72 -121 -86 -329q-2 -27 -2 -105z" />
<glyph unicode="&#x153;" horiz-adv-x="1447" d="M68 468q0 77 2 101q12 98 49 164q68 106 203 137q20 4 71 11q8 1 25 1h18q31 -1 45 -3q131 -10 217 -78l15 -8l8 8q4 2 23.5 16l29.5 21q53 29 135 41q28 4 65 3q24 0 52 -1q57 -6 121 -27q51 -18 78 -39q113 -72 139 -213q13 -56 13 -101q0 -11 -1 -22q0 -29 -12 -47 q-20 -37 -76 -53q-27 -8 -248 -8h-209v-6q0 -70 13 -103q25 -104 90 -117q24 -7 48 -6q41 0 85 19q31 16 53 51q16 27 54 39q8 2 34 2q27 2 54 -6q53 -20 67 -51q4 -8 4 -19q0 -21 -18 -47q-68 -100 -238 -125q-36 -3 -64 -3t-48 3q-131 12 -220 78l-12 10l-10 -8 q-16 -16 -53 -37q-61 -33 -135 -41q-36 -5 -70 -5q-25 0 -47 3q-70 6 -121 27q-33 8 -78 39q-137 90 -149 292q-2 31 -2 108zM285 431q0 -73 2 -93q6 -123 59 -172q29 -27 82 -27h14q86 6 127 70q37 55 43 149q2 18 2 92t-2 95q-6 90 -41 147q-33 43 -84 49q-14 2 -27 2 q-54 0 -95 -32q-72 -51 -78 -187q-2 -20 -2 -93zM831 510h164h164v8q0 29 -4 66q-16 113 -78 147q-31 8 -43 10q-14 2 -28 2q-54 0 -97 -32q-68 -51 -78 -185v-16z" />
<glyph unicode="&#x178;" horiz-adv-x="1224" d="M113 1352q0 2 2 7t2 7q20 23 57 33q49 0 62 -2q55 -12 77 -45l150 -287l143 -281l150 291q147 287 155 299q14 14 41 21q8 4 35 4q35 0 53 -8q39 -12 60 -37q15 -18 14 -34q0 -7 -2 -13l-197 -387l-194 -381v-242q0 -250 -6 -262q-14 -20 -49 -31q-8 -2 -33 -2h-12 q-24 0 -43 6q-51 16 -68 51l-4 13l-2 245v246l-189 365l-91 181l-77 152l-26 52q-12 25 -8 39zM279 1671q-2 0 -2 1q0 2 14 11q18 12 55 19q2 2 53 2q53 -2 62 -4q35 -8 53 -21q6 -2 16.5 -10t10.5 -10q-2 0 -23 10l-29 12l7 -6q18 -12 28 -33q4 -8 4 -20q2 -16 -12 -33 l-6 -8l6 2q2 2 12 4q4 2 7 2l12 4l-2 -2q-10 -14 -53 -26h-62h-63q-33 8 -54 20l-28 21q2 0 22 -9l31 -12l-8 4q-14 10 -29 33q-4 8 -4 23q0 18 12 30l8 8h-8l-6 -2q-8 -4 -10 -6zM379 1567l4 -2v2l-4 2v-2zM444 1700q0 -2 5 -2l-3 2h-2zM612 1671q6 8 13 12q18 12 57 19 q0 2 53 2q51 -2 62 -4q37 -10 51 -21q6 -2 16 -10t10 -10q-10 4 -20 10l-31 12l6 -6q23 -14 29 -33q4 -8 4 -20q2 -18 -12 -33l-6 -8l6 2l18 6l15 4q-2 0 -4 -2q-10 -14 -54 -26h-61h-62q-37 8 -55 20q-4 2 -11 7t-11 10l-4 4l20 -9l31 -12q-2 2 -6 4q-20 14 -29 33 q-4 8 -4 23q-2 18 12 30l6 8h-6l-6 -2l-12 -6zM715 1567q0 -2 4 -2l-2 2l-2 2q-1 0 -1 -0.5t1 -1.5zM778 1700q2 -2 4 -2l-2 2h-2z" />
<glyph unicode="&#x2c6;" horiz-adv-x="780" d="M55 1143q0 12 4 20t123 123q117 119 127 121q10 6 35 14q48 0 62 -2q37 -10 59 -26q6 -4 125 -119t121 -119q13 -21 13 -35q0 -38 -54 -53q-10 -2 -35 -2h-33q-29 6 -63 27q-2 0 -12 9l-28 28q-19 19 -34 32l-66 66l-75 -72q-80 -76 -82 -78q-27 -15 -61 -14h-9 q-43 4 -68 18q-33 14 -45 41q-4 11 -4 21z" />
<glyph unicode="&#x2dc;" horiz-adv-x="780" d="M53 1114q0 28 23 84q45 113 164 129q17 2 33 2q80 0 147 -49q37 -27 61 -68q0 -6 4 -6q6 0 19 60q2 12 8 24q10 25 49 33q8 4 35 4q33 0 53 -8q68 -20 74 -68q0 -47 -35 -116q-53 -94 -162 -103q-14 -2 -28 -1q-78 0 -144 48q-43 35 -59 68l-4 6q-6 0 -19 -59l-5 -14.5 t-3 -10.5q-10 -27 -49 -33q-8 -4 -33 -4q-37 0 -55 8q-74 23 -74 74z" />
<glyph unicode="&#x2013;" horiz-adv-x="1001" d="M7 530q-7 13 -7 25q0 18 16.5 34.5t46.5 22.5q8 2 426 2h3h2h4h2h2h2h2h2h4h2h2h2h2h2h4h2h2h2h3h2h4h2h2h2h2h2h2h4h2h2h2h2h2h2h2h2h5h2h2h2h2h2h2h2h2h4h2h2h2h2h2h2h2h2h2h2h3h2h2h2h4h2h2h2h2h2h2h2h2h2h2h2h2h2h2h3h2h2h4q240 -2 256 -8q4 -2 6 -2q41 -12 60 -41 q11 -16 11 -30q0 -12 -8 -23q-14 -20 -49 -31l-10 -2h-416q-428 0 -446 6q-50 14 -67 47z" />
<glyph unicode="&#x2014;" horiz-adv-x="2004" d="M7 530q-7 13 -7 25q0 18 16.5 34.5t46.5 22.5q8 2 926 2q860 -2 924 -2q68 -18 86 -57q6 -12 6 -23q0 -19 -18 -34q-12 -12 -39 -19l-11 -2h-915h-926q-2 2 -11 4t-11 2q-50 14 -67 47z" />
<glyph unicode="&#x2018;" horiz-adv-x="557" d="M131 1366q0 41 62 55q7 1 18 2q6 0 13 -1q22 -1 30 -3q66 -12 86 -53q16 -37 16 -176v-64l9 -2q41 -20 41 -28q-4 0 -25 10l-23 10l4 -4q20 -16 27 -33q4 -8 4 -20q0 -18 -12 -33l-8 -8l8 2q2 2 8 4t8 2l15 4q-2 0 -2 -2q-10 -14 -54 -27h-61h-64q-29 6 -55 21 q-4 2 -11 7t-11 9l-4 4l2 -2q4 0 10 -2t10 -4l29 -12l-4 4q-25 16 -45 51l-5 13q-2 10 -4 14q-2 12 -4 90q0 94 -6 143q-2 13 -2 29zM244 1004q2 -2 4 -3l-2 3l-2 2q-1 0 -1 -0.5t1 -1.5z" />
<glyph unicode="&#x2019;" horiz-adv-x="557" d="M143 1391q-2 0 -1 0q0 2 14 12q18 12 55 18q2 2 53 2q53 -2 62 -4q35 -8 53 -20q6 -2 16.5 -10.5t10.5 -10.5q-2 0 -23 11q-6 2 -11 4q-6 2 -10 4l-4 2h-2q29 -25 43 -45q4 -12 9 -21q8 -23 8 -114q2 -88 8 -136q1 -9 0 -15q0 -22 -4 -30q-12 -27 -49 -34q-8 -2 -33 -3 h-12q-24 0 -43 7q-47 16 -68 49q-14 35 -16 174v65h-6q-43 23 -43 29q2 0 22 -8l25 -8h-2q-18 12 -29 32q-4 8 -4 23q0 18 12 31l8 8h-8l-6 -2q-8 -4 -10 -6zM309 1419q0 -2 4 -2l-2 2h-2z" />
<glyph unicode="&#x201c;" horiz-adv-x="1001" d="M330 1366q0 41 61 55q7 1 19 2q6 0 13 -1q22 -1 30 -3q66 -12 86 -53q16 -37 16 -176v-64l8 -2q41 -20 41 -28q-4 0 -24 10l-23 10l4 -4q20 -16 27 -33q4 -8 4 -20q0 -18 -12 -33l-9 -8l9 2q2 2 8 4t8 2l14 4q-2 0 -2 -2q-10 -14 -53 -27h-61h-64q-29 6 -55 21 q-4 2 -11.5 7t-11.5 9l-4 4l4 -2q2 0 8.5 -2t10.5 -4l28 -12l-4 4q-25 16 -45 51l-2 13q-4 10 -6 14q-2 12 -4 90q0 94 -6 143q-2 13 -2 29zM442 1004q2 -2 4 -3l-2 3l-2 2q-1 0 -1 -0.5t1 -1.5zM719 1366q0 41 63 55q7 1 19 2q6 0 12 -1q20 -1 31 -3q63 -14 84 -53 q16 -33 16 -174v-66l8 -2q6 -2 16.5 -8t17.5 -12t7 -8q-10 4 -20 10q-8 4 -19 8h-6v-2q20 -14 29 -33q4 -8 4 -20q2 -18 -12 -33l-6 -8l6 2q2 0 5 1t7 3t6 2l14 4q-2 0 -4 -2q-10 -14 -53 -27h-61h-62q-37 8 -55 21q-4 2 -11 7t-12 9l-4 4l21 -8q23 -6 26 -12q4 0 2 2 q-20 12 -43 45q-2 6 -10 23q-8 27 -8 114q0 84 -6 133q-2 11 -2 27zM834 1004q0 -2 4 -3l-2 3l-2 2q-1 0 -1 -0.5t1 -1.5z" />
<glyph unicode="&#x201d;" horiz-adv-x="1001" d="M0 1391h-2q0 2 14 12q18 12 56 18q2 2 53 2q53 -2 61 -4q35 -8 54 -20q6 -2 16 -10.5t10 -10.5q-2 0 -22 11l-11.5 4t-9.5 4l-4 2h-2q29 -25 43 -45q4 -12 8 -21q8 -23 8 -114q2 -88 9 -136q2 -35 -5 -45q-12 -27 -49 -34q-8 -2 -32 -3h-12q-24 0 -44 7q-47 16 -67 49 q-14 35 -17 174v65h-6q-43 23 -43 29q2 0 23 -8l24 -8h-2q-18 12 -28 32q-4 8 -5 23q0 18 13 31l8 8h-8l-6 -2q-8 -4 -11 -6zM166 1419q0 -2 4 -2l-2 2h-2zM389 1391q-2 0 -1 0q0 2 13 12q18 12 56 18q2 2 53 2q53 -2 61 -4q35 -8 54 -20q6 -2 16 -10.5t10 -10.5 q-2 0 -22 11l-29 12l2 -2q0 -2 2 -4q20 -10 45 -49l8 -27q2 -14 5 -88q0 -96 6 -146q2 -13 1 -23q0 -15 -3 -24q-12 -27 -50 -34q-8 -2 -32 -3h-12q-24 0 -44 7q-47 16 -67 49q-16 37 -17 176v63l-8 2q-41 20 -41 27l4 -2q4 0 10.5 -2t10.5 -4l22 -10l-4 4q-18 12 -26 30 q-4 8 -4 23q0 18 12 31l8 8h-8l-6 -2q-8 -4 -11 -6zM555 1419q0 -2 4 -2l-2 2h-2z" />
<glyph unicode="&#x2026;" horiz-adv-x="1671" d="M143 109q-2 0 -1 0q0 2 14 12q18 12 55 18q2 2 53 2q53 -2 62 -4q35 -8 53 -20q6 -2 16.5 -10.5t10.5 -10.5q-2 0 -23 10l-29 13l6 -6q18 -12 29 -33q4 -8 4 -21q2 -16 -12 -32l-6 -9l6 2l18 7l13 4l-2 -2q-10 -14 -54 -27h-61h-64q-33 8 -53 21l-28 20q2 0 22 -8l31 -12 l-8 4q-14 10 -29 32q-4 8 -4 23q0 18 12 31l8 8h-8l-6 -2q-8 -4 -10 -6zM244 4l4 -2v2l-4 2v-2zM309 137q0 -2 4 -2l-2 2h-2zM700 109q-2 0 -1 0q0 2 14 12q18 12 55 18q2 2 53 2q53 -2 62 -4q35 -8 53 -20q6 -2 16.5 -10.5t10.5 -10.5q-2 0 -23 10l-29 13l7 -6 q18 -12 28 -33q4 -8 4 -21q2 -16 -12 -32l-6 -9l6 2l18 7l13 4l-2 -2q-10 -14 -54 -27h-61h-64q-33 8 -53 21l-28 20q2 0 22 -8l31 -12l-8 4q-14 10 -29 32q-4 8 -4 23q0 18 12 31l8 8h-8l-6 -2q-8 -4 -10 -6zM801 4l4 -2v2l-4 2v-2zM866 137q0 -2 4 -2l-2 2h-2zM1257 109 q-2 0 -1 0q0 2 14 12q18 12 55 18q2 2 53 2q53 -2 62 -4q35 -8 53 -20q6 -2 16.5 -10.5t10.5 -10.5q-2 0 -23 10l-29 13l7 -6q18 -12 28 -33q4 -8 4 -21q2 -16 -12 -32l-6 -9l6 2l18 7l13 4l-2 -2q-10 -14 -54 -27h-61h-63q-33 8 -54 21l-28 20q2 0 22 -8l31 -12l-8 4 q-14 10 -29 32q-4 8 -4 23q0 18 12 31l8 8h-8l-6 -2q-8 -4 -10 -6zM1358 4l4 -2v2l-4 2v-2zM1423 137q0 -2 4 -2l-2 2h-2z" />
<glyph unicode="&#x2122;" horiz-adv-x="2617" d="M59 1366q20 23 58 33h481q471 0 479 -2q66 -16 86 -56q14 -33 -12 -57q-14 -14 -37 -20l-10 -2l-193 -2h-192v-603q0 -604 -2 -610q-2 -12 -15 -24q-10 -10 -36 -19q-10 -2 -35 -2h-12q-23 0 -44 6q-51 16 -67 51l-4 13l-2 594v594h-174q-182 2 -203 10q-43 14 -63 43 q-11 16 -10 30q0 12 7 23zM1391 707q0 639 2 647q2 12 14 20q14 18 47 25q49 0 62 -2q43 -8 73 -39q12 -12 164 -244l160 -237l72 108l165 246q70 106 85.5 127.5t29.5 27.5q23 12 57 13q33 0 54 -8q51 -16 67 -52l6 -10v-637q0 -639 -4 -645q-2 -12 -14 -24 q-10 -10 -37 -19q-10 -2 -35 -2h-11q-22 0 -42 6q-51 16 -70 51l-4 13v454v455l-108 -162q-106 -160 -113 -166q-8 -10 -37 -18q-10 -2 -35 -2q-29 -2 -55 6q-37 10 -55 33q-2 4 -113 168l-106 161l-2 -477v-154v-119q0 -48 -1 -86t-1 -60v-35v-21v-6q-12 -29 -54 -39 q-8 -2 -32 -2h-12q-24 0 -44 6q-51 16 -67 51l-4 13z" />
<glyph unicode="&#xe000;" horiz-adv-x="880" d="M0 880h880v-880h-880v880z" />
<glyph unicode="&#xfb01;" horiz-adv-x="903" d="M6 848q12 20 49 31q10 2 76 4h64v155q2 170 10 199q43 168 284 186q109 0 127 -2q154 -18 238 -88q8 -8 25 -16q18 -4 26 -10q10 -6 19.5 -12.5t7.5 -8.5q-10 4 -21 10l-30 13q0 -2 6 -6q20 -14 28 -33q4 -8 5 -21q2 -20 -13 -32l-6 -9l6 2l19 7l14 4q-2 -2 -4 -2 q-10 -14 -53 -27q-8 -2 -61.5 -2t-61.5 2q-37 8 -55 20q-10 6 -19.5 12.5t-7.5 8.5q10 -4 20 -10l31 -13q0 2 -6 7q-20 14 -29 32q-2 2 -4 6l-2 5q-6 10 -26 14q-32 11 -84 11q-15 0 -31 -1q-25 -4 -33 -4q-76 -14 -94 -82q-8 -27 -8 -178v-137h200q201 -2 209 -4 q66 -14 86 -58l6 -8v-381q0 -385 -6 -397q-14 -20 -49 -31q-8 -2 -33 -2h-12q-24 0 -43 6q-51 16 -68 51l-4 13l-2 336v335h-141h-143v-344q0 -352 -6 -364q-14 -20 -48 -31q-10 -2 -34 -2h-12q-23 0 -44 6q-51 16 -67 51l-4 13l-2 336v335h-48q-53 0 -75 9q-43 14 -63 42 q-11 15 -10 29q0 13 7 25zM772 1194q0 -2 4 -2l-2 2h-2z" />
<glyph unicode="&#xfb02;" horiz-adv-x="903" d="M6 848q12 20 49 31q10 2 76 4h64v151q0 184 12 242q12 82 65.5 141.5t139.5 83.5q43 12 88 15q7 1 29 1h27q46 -1 60 -4q154 -18 238 -90q37 -27 53 -63l6 -8v-650q0 -649 -2 -655q-6 -14 -16 -24.5t-37 -18.5q-8 -2 -33 -2h-12q-24 0 -43 6q-51 16 -68 51l-4 13l-2 637 v639l-6 6q-29 23 -108 22q-35 2 -60 -6q-43 -12 -69 -53q-25 -39 -37 -109q-2 -12 -4 -170v-155h75q80 -2 105 -11q43 -14 62.5 -41.5t2.5 -54.5q-14 -23 -49 -28q-10 -4 -102 -5h-94v-344q0 -352 -6 -364q-14 -20 -48 -31q-10 -2 -34 -2h-12q-23 0 -44 6q-51 16 -67 51 l-4 13l-2 336v335h-48q-53 0 -75 9q-43 14 -63 42q-11 15 -10 29q0 13 7 25z" />
<glyph unicode="&#xfb03;" horiz-adv-x="1404" d="M6 848q12 20 49 31q10 2 76 4h64v157q2 162 4 172q10 66 34 103q55 86 189 104q33 3 57 3t39 -3q125 -12 209 -96l12 -12l4 6q12 18 41 39q78 59 205 67q111 0 129 -2q152 -18 236 -88q10 -8 26 -16q18 -4 27 -10q10 -6 19.5 -12.5t7.5 -8.5q-2 0 -23 10l-29 13 q0 -2 7 -6q14 -10 28 -33q4 -8 4 -21q2 -18 -12 -32l-6 -9l6 2l18 7l13 4q0 -2 -2 -2q-10 -14 -54 -27q-8 -2 -61 -2t-63 2q-33 8 -54 20q-29 14 -28 21q6 0 22 -10l31 -13q0 2 -8 7q-14 10 -29 32l-4 11q-4 10 -27 14q-35 11 -85 11q-14 0 -29 -1q-29 -4 -35 -4 q-74 -14 -94 -82q-6 -27 -7 -178v-137h201q201 -2 209 -4q68 -16 86 -58l6 -8v-381q0 -303 -1 -345t-7 -52q-14 -20 -47 -31q-10 -2 -35 -2h-11q-22 0 -42 6q-51 16 -70 51l-4 13v336v335h-143h-142v-344q0 -352 -6 -364q-14 -20 -49 -31q-8 -2 -33 -2h-12q-24 0 -43 6 q-51 16 -68 51l-4 13l-2 336v335h-141h-143v-344q0 -352 -6 -364q-14 -20 -48 -31q-10 -2 -34 -2h-12q-23 0 -44 6q-51 16 -67 51l-4 13l-2 336v335h-48q-53 0 -75 9q-43 14 -63 42q-11 15 -10 29q0 13 7 25zM412 883h143h141v125v125l-12 2q-29 4 -45 14q-25 10 -35 25 q-8 8 -20 36q-23 51 -54 68q-9 4 -18 4q-7 0 -14 -2q-55 -6 -74 -66q-10 -25 -12 -104v-80v-147zM1272 1194l4 -2v2h-4z" />
<glyph unicode="&#xfb04;" horiz-adv-x="1404" d="M6 848q12 20 49 31q10 2 76 4h64v157q2 162 4 172q10 66 34 103q55 86 189 104q33 3 57 3t39 -3q106 -12 189 -78l14 -12l8 17q23 55 66 94q18 14 63 41q59 27 143 35q7 1 30 1h27q46 -1 60 -4q150 -18 238 -90q37 -27 53 -63l6 -8v-650q0 -649 -4 -655q-2 -12 -14 -24 q-10 -10 -37 -19q-10 -2 -35 -2h-11q-22 0 -42 6q-51 16 -70 51l-4 13v637v639l-8 6q-29 23 -107 22q-35 2 -61 -6q-39 -12 -70 -53q-27 -47 -37 -109q0 -33 -2 -170v-155h76q80 -2 105 -11q41 -14 59 -41.5t4 -54.5q-14 -23 -47 -28q-10 -4 -104 -5h-93v-344 q0 -352 -6 -364q-14 -20 -49 -31q-8 -2 -33 -2h-12q-24 0 -43 6q-51 16 -68 51l-4 13l-2 336v335h-141h-143v-344q0 -352 -6 -364q-14 -20 -48 -31q-10 -2 -34 -2h-12q-23 0 -44 6q-51 16 -67 51l-4 13l-2 336v335h-48q-53 0 -75 9q-43 14 -63 42q-11 15 -10 29q0 13 7 25z M412 883h143h141v125v125l-12 2q-29 4 -45 14q-25 10 -35 25q-8 8 -20 36q-23 51 -54 68q-9 4 -18 4q-7 0 -14 -2q-55 -6 -74 -66q-10 -25 -12 -104v-80v-147z" />
</font>
</defs>
</svg>
